<svg width="1440" height="588" viewBox="0 0 1440 588" fill="none" xmlns="http://www.w3.org/2000/svg">
<g clip-path="url(#clip0_119_906)">
<rect width="1440" height="588" fill="white"/>
<path d="M0 588H1440V0H0V588Z" fill="#2B0051"/>
<path d="M1302.77 421.538C1166.39 421.538 1440 -18 1440 -18H1099.25C1008.66 -18 999.046 59.0889 862.632 71.9519C811.475 76.7773 631.673 100.909 716.196 -18H455.702C395.267 147.267 549.759 225.752 531.971 304.999C514.182 384.246 445.996 612.662 312.588 612.662C179.181 612.662 202.899 873.71 336.306 892.356C469.713 911.003 520.109 980.704 520.109 1048.41H707.125C707.125 1048.41 709.847 878.373 644.624 878.373C579.403 878.373 454.888 827.095 508.253 710.555C526.211 671.339 613.766 556.721 589.692 446.588C565.618 336.455 618.25 236.344 672.549 201.824C726.848 167.302 921.463 113.433 896.616 179.136C874.617 237.311 735.286 344.023 821.117 418.557C906.946 493.091 761.487 783.39 896.616 761.834C1101.17 729.202 1145.64 747.848 1199 822.432C1252.37 897.019 1255.08 1048.41 1255.08 1048.41H1440C1440 1048.41 1439.14 421.538 1302.77 421.538ZM1053.74 575.37C970.729 547.401 941.085 566.047 929.226 515.204C917.367 464.364 959.802 414.309 1003.34 370.26C1053.53 319.486 1027.06 179.136 1047.81 113.875C1068.56 48.611 1258.11 250.579 1145.64 407.552C1033.17 564.528 1187.15 482.137 1201.97 608.002C1216.8 733.864 1136.75 603.339 1053.74 575.37ZM336.375 1053H110.747C110.747 917.814 0 980.856 0 980.856V386.423C99.2076 300.045 93.2782 -13.4084 93.2782 -13.4084H336.375C336.375 -13.4084 188.867 103.862 359.963 221.51C531.06 339.161 339.873 490.653 235.581 472.745C37.9246 438.803 27.3994 567.153 113.909 708.276C200.418 849.398 107.134 910.932 182.216 910.932C336.375 910.932 336.375 1053 336.375 1053ZM1200.86 1053H1169.3C1169.3 1053 1169.68 1030 1083.46 980.856C992.458 928.991 843.323 1013.49 791.318 1032.13C739.319 1050.78 762.191 889.88 810.713 868.977C1027.13 775.746 1065.67 882.962 1130.89 892.285C1196.11 901.611 1200.86 1053 1200.86 1053ZM769.282 677.119C732.363 720.658 771.863 746.141 809.253 832.777C846.643 919.411 766.859 898.669 746.694 911.649C726.529 924.629 618.253 921.141 617.581 887.531C616.908 853.919 601.166 798.551 588.758 752.74C576.351 706.931 624.499 618.131 662.665 596.96C745.047 551.259 806.206 633.581 769.282 677.119ZM1111.11 226.306C1142.59 274.422 1128.11 341.998 1112.58 385.767C1097.04 429.537 1097.4 424.911 1079.55 461.88C1061.7 498.852 1008.44 490.374 1010.91 456.629C1013.37 422.883 1066.98 381.313 1079.55 342.16C1093.98 297.247 1079.62 178.188 1111.11 226.306ZM1437.11 459.882C1437.11 459.882 1422.37 451.835 1408.79 406.432C1395.22 361.026 1373.01 338.325 1380.48 287.054C1387.95 235.783 1426.17 197.572 1437.11 185.982V459.882Z" fill="#351357"/>
<path d="M266.905 90.9099C264.96 90.9099 263.384 89.4512 263.384 87.6521C263.384 85.8586 264.96 84.4056 266.905 84.4056C268.85 84.4056 270.43 85.8586 270.43 87.6521C270.43 89.4512 268.85 90.9099 266.905 90.9099ZM548.028 649.078C548.028 647.282 546.449 645.826 544.507 645.826C542.558 645.826 540.982 647.282 540.982 649.078C540.982 650.874 542.558 652.333 544.507 652.333C546.449 652.333 548.028 650.874 548.028 649.078ZM926.01 501.512C926.01 499.716 924.431 498.26 922.488 498.26C920.543 498.26 918.964 499.716 918.964 501.512C918.964 503.308 920.543 504.767 922.488 504.767C924.431 504.767 926.01 503.308 926.01 501.512ZM1294.76 135.954C1294.76 134.158 1293.18 132.702 1291.24 132.702C1289.29 132.702 1287.71 134.158 1287.71 135.954C1287.71 137.751 1289.29 139.206 1291.24 139.206C1293.18 139.206 1294.76 137.751 1294.76 135.954ZM1322.41 135.954C1322.41 134.158 1320.84 132.702 1318.89 132.702C1316.95 132.702 1315.37 134.158 1315.37 135.954C1315.37 137.751 1316.95 139.206 1318.89 139.206C1320.84 139.206 1322.41 137.751 1322.41 135.954ZM1433.13 472.603C1433.73 474.309 1435.73 475.24 1437.58 474.681C1439.42 474.121 1440.43 472.285 1439.82 470.577C1439.22 468.869 1437.23 467.941 1435.38 468.5C1433.53 469.062 1432.52 470.895 1433.13 472.603ZM1207.4 917.205C1208.01 918.913 1210 919.844 1211.85 919.285C1213.7 918.723 1214.71 916.884 1214.1 915.176C1213.49 913.471 1211.5 912.545 1209.65 913.104C1207.8 913.663 1206.8 915.499 1207.4 917.205ZM537.635 0.0944269C538.241 1.80276 540.232 2.73357 542.082 2.17169C543.929 1.61262 544.937 -0.223406 544.329 -1.92896C543.723 -3.63729 541.732 -4.5681 539.885 -4.00622C538.035 -3.44716 537.03 -1.61113 537.635 0.0944269ZM263.559 520.596C264.164 522.302 266.155 523.235 268.005 522.673C269.852 522.114 270.86 520.273 270.252 518.567C269.646 516.859 267.655 515.928 265.808 516.49C263.958 517.049 262.953 518.888 263.559 520.596ZM283.773 798.284C284.379 799.989 286.37 800.923 288.217 800.361C290.067 799.802 291.075 797.96 290.466 796.255C289.861 794.547 287.869 793.616 286.023 794.178C284.173 794.74 283.168 796.576 283.773 798.284ZM974.039 251.291C974.039 249.495 972.459 248.039 970.517 248.039C968.572 248.039 966.992 249.495 966.992 251.291C966.992 253.088 968.572 254.543 970.517 254.543C972.459 254.543 974.039 253.088 974.039 251.291ZM1292.36 711.427C1292.36 709.631 1290.79 708.175 1288.84 708.175C1286.9 708.175 1285.32 709.631 1285.32 711.427C1285.32 713.224 1286.9 714.682 1288.84 714.682C1290.79 714.682 1292.36 713.224 1292.36 711.427ZM1111.53 580.917C1111.53 579.12 1109.96 577.662 1108.01 577.662C1106.06 577.662 1104.49 579.12 1104.49 580.917C1104.49 582.713 1106.06 584.169 1108.01 584.169C1109.96 584.169 1111.53 582.713 1111.53 580.917ZM997.808 757.357C997.808 755.561 996.232 754.102 994.287 754.102C992.338 754.102 990.762 755.561 990.762 757.357C990.762 759.153 992.338 760.612 994.287 760.612C996.232 760.612 997.808 759.153 997.808 757.357ZM-0.18953 937.751C-0.18953 935.952 -1.76904 934.496 -3.7112 934.496C-5.65951 934.496 -7.23597 935.952 -7.23597 937.751C-7.23597 939.544 -5.65951 941 -3.7112 941C-1.76904 941 -0.18953 939.544 -0.18953 937.751ZM84.7519 577.662C84.7519 575.865 83.1754 574.409 81.2271 574.409C79.2819 574.409 77.7055 575.865 77.7055 577.662C77.7055 579.461 79.2819 580.917 81.2271 580.917C83.1754 580.917 84.7519 579.461 84.7519 577.662ZM437.55 312.216C437.55 310.42 435.974 308.961 434.029 308.961C432.083 308.961 430.507 310.42 430.507 312.216C430.507 314.012 432.083 315.468 434.029 315.468C435.974 315.468 437.55 314.012 437.55 312.216ZM59.1198 -37.935C59.1198 -39.7314 57.5433 -41.1872 55.5981 -41.1872C53.6529 -41.1872 52.0734 -39.7314 52.0734 -37.935C52.0734 -36.1387 53.6529 -34.6772 55.5981 -34.6772C57.5433 -34.6772 59.1198 -36.1387 59.1198 -37.935ZM1183.93 -94.7451C1183.93 -96.5442 1182.36 -98 1180.41 -98C1178.46 -98 1176.89 -96.5442 1176.89 -94.7451C1176.89 -92.9516 1178.46 -91.4929 1180.41 -91.4929C1182.36 -91.4929 1183.93 -92.9516 1183.93 -94.7451ZM773.699 -34.6772C773.699 -36.4764 772.119 -37.935 770.174 -37.935C768.229 -37.935 766.652 -36.4764 766.652 -34.6772C766.652 -32.8809 768.229 -31.4251 770.174 -31.4251C772.119 -31.4251 773.699 -32.8809 773.699 -34.6772ZM795.871 315.468C795.871 313.672 794.294 312.216 792.349 312.216C790.404 312.216 788.824 313.672 788.824 315.468C788.824 317.265 790.404 318.72 792.349 318.72C794.294 318.72 795.871 317.265 795.871 315.468ZM658.835 431.549C658.835 429.752 657.256 428.297 655.311 428.297C653.365 428.297 651.789 429.752 651.789 431.549C651.789 433.345 653.365 434.804 655.311 434.804C657.256 434.804 658.835 433.345 658.835 431.549ZM658.835 188.939C658.835 187.143 657.256 185.684 655.311 185.684C653.365 185.684 651.789 187.143 651.789 188.939C651.789 190.735 653.365 192.191 655.311 192.191C657.256 192.191 658.835 190.735 658.835 188.939ZM-30.9536 379.773C-30.9536 377.977 -32.53 376.518 -34.4752 376.518C-36.4204 376.518 -38 377.977 -38 379.773C-38 381.569 -36.4204 383.025 -34.4752 383.025C-32.53 383.025 -30.9536 381.569 -30.9536 379.773ZM1414.17 917.625C1414.17 915.829 1412.59 914.37 1410.65 914.37C1408.7 914.37 1407.13 915.829 1407.13 917.625C1407.13 919.421 1408.7 920.877 1410.65 920.877C1412.59 920.877 1414.17 919.421 1414.17 917.625ZM1187.45 359.596C1187.45 357.797 1185.88 356.338 1183.93 356.338C1181.99 356.338 1180.41 357.797 1180.41 359.596C1180.41 361.39 1181.99 362.845 1183.93 362.845C1185.88 362.845 1187.45 361.39 1187.45 359.596ZM994.474 240.93C994.474 237.338 991.321 234.421 987.431 234.421C983.54 234.421 980.384 237.338 980.384 240.93C980.384 244.523 983.54 247.435 987.431 247.435C991.321 247.435 994.474 244.523 994.474 240.93ZM994.474 272.796C994.474 271 992.901 269.544 990.952 269.544C989.007 269.544 987.431 271 987.431 272.796C987.431 274.592 989.007 276.048 990.952 276.048C992.901 276.048 994.474 274.592 994.474 272.796ZM66.8454 612.181C66.8454 610.384 65.2689 608.926 63.3237 608.926C61.3785 608.926 59.802 610.384 59.802 612.181C59.802 613.977 61.3785 615.433 63.3237 615.433C65.2689 615.433 66.8454 613.977 66.8454 612.181ZM55.5981 584.169C55.5981 582.372 54.0217 580.917 52.0734 580.917C50.1312 580.917 48.5517 582.372 48.5517 584.169C48.5517 585.965 50.1312 587.421 52.0734 587.421C54.0217 587.421 55.5981 585.965 55.5981 584.169ZM49.4521 601.196C49.4521 599.399 47.8756 597.943 45.9273 597.943C43.9852 597.943 42.4057 599.399 42.4057 601.196C42.4057 602.992 43.9852 604.448 45.9273 604.448C47.8756 604.448 49.4521 602.992 49.4521 601.196ZM931.41 226.608C931.41 224.812 929.83 223.356 927.885 223.356C925.943 223.356 924.363 224.812 924.363 226.608C924.363 228.404 925.943 229.86 927.885 229.86C929.83 229.86 931.41 228.404 931.41 226.608ZM266.905 -76.8215C266.905 -78.6178 265.326 -80.0736 263.384 -80.0736C261.435 -80.0736 259.859 -78.6178 259.859 -76.8215C259.859 -75.0251 261.435 -73.5694 263.384 -73.5694C265.326 -73.5694 266.905 -75.0251 266.905 -76.8215ZM430.507 703.357C430.507 701.56 428.93 700.104 426.982 700.104C425.04 700.104 423.46 701.56 423.46 703.357C423.46 705.153 425.04 706.609 426.982 706.609C428.93 706.609 430.507 705.153 430.507 703.357ZM169.958 229.86C169.958 228.064 168.381 226.608 166.436 226.608C164.491 226.608 162.914 228.064 162.914 229.86C162.914 231.659 164.491 233.112 166.436 233.112C168.381 233.112 169.958 231.659 169.958 229.86ZM522.698 158.501C522.698 156.704 521.121 155.249 519.173 155.249C517.231 155.249 515.651 156.704 515.651 158.501C515.651 160.297 517.231 161.753 519.173 161.753C521.121 161.753 522.698 160.297 522.698 158.501ZM900.679 8.09702C900.679 6.3007 899.1 4.8449 897.155 4.8449C895.212 4.8449 893.633 6.3007 893.633 8.09702C893.633 9.89333 895.212 11.3491 897.155 11.3491C899.1 11.3491 900.679 9.89333 900.679 8.09702ZM912.971 42.1507C912.971 40.3544 911.392 38.8986 909.447 38.8986C907.504 38.8986 905.925 40.3544 905.925 42.1507C905.925 43.947 907.504 45.4028 909.447 45.4028C911.392 45.4028 912.971 43.947 912.971 42.1507ZM1002.09 169.852C1002.09 168.056 1000.51 166.6 998.564 166.6C996.622 166.6 995.043 168.056 995.043 169.852C995.043 171.648 996.622 173.104 998.564 173.104C1000.51 173.104 1002.09 171.648 1002.09 169.852ZM1164.96 337.282C1164.96 335.486 1163.38 334.03 1161.43 334.03C1159.49 334.03 1157.91 335.486 1157.91 337.282C1157.91 339.079 1159.49 340.535 1161.43 340.535C1163.38 340.535 1164.96 339.079 1164.96 337.282ZM1272.51 189.717C1272.51 187.92 1270.94 186.464 1268.99 186.464C1267.05 186.464 1265.47 187.92 1265.47 189.717C1265.47 191.513 1267.05 192.969 1268.99 192.969C1270.94 192.969 1272.51 191.513 1272.51 189.717ZM124.022 27.3912C124.022 25.5949 122.443 24.1391 120.5 24.1391C118.552 24.1391 116.976 25.5949 116.976 27.3912C116.976 29.1876 118.552 30.6434 120.5 30.6434C122.443 30.6434 124.022 29.1876 124.022 27.3912ZM16.7182 251.027C16.7182 249.234 15.1387 247.775 13.1935 247.775C11.2483 247.775 9.6718 249.234 9.6718 251.027C9.6718 252.827 11.2483 254.282 13.1935 254.282C15.1387 254.282 16.7182 252.827 16.7182 251.027ZM101.776 81.1507C101.776 79.3543 100.2 77.8985 98.2548 77.8985C96.3064 77.8985 94.73 79.3543 94.73 81.1507C94.73 82.947 96.3064 84.4056 98.2548 84.4056C100.2 84.4056 101.776 82.947 101.776 81.1507ZM1272.51 -40.1457C1272.51 -41.942 1270.94 -43.3978 1268.99 -43.3978C1267.05 -43.3978 1265.47 -41.942 1265.47 -40.1457C1265.47 -38.3494 1267.05 -36.8936 1268.99 -36.8936C1270.94 -36.8936 1272.51 -38.3494 1272.51 -40.1457ZM1340.12 413.9C1340.12 412.104 1338.54 410.648 1336.6 410.648C1334.65 410.648 1333.08 412.104 1333.08 413.9C1333.08 415.697 1334.65 417.153 1336.6 417.153C1338.54 417.153 1340.12 415.697 1340.12 413.9ZM1260.22 870.787C1260.22 868.991 1258.64 867.532 1256.7 867.532C1254.76 867.532 1253.18 868.991 1253.18 870.787C1253.18 872.583 1254.76 874.039 1256.7 874.039C1258.64 874.039 1260.22 872.583 1260.22 870.787ZM1014.38 916.192C1014.38 914.396 1012.8 912.937 1010.86 912.937C1008.91 912.937 1007.33 914.396 1007.33 916.192C1007.33 917.988 1008.91 919.444 1010.86 919.444C1012.8 919.444 1014.38 917.988 1014.38 916.192ZM857.657 629.574C857.657 627.777 856.077 626.321 854.132 626.321C852.19 626.321 850.611 627.777 850.611 629.574C850.611 631.37 852.19 632.826 854.132 632.826C856.077 632.826 857.657 631.37 857.657 629.574ZM578.012 496.197C578.012 494.4 576.435 492.945 574.487 492.945C572.545 492.945 570.966 494.4 570.966 496.197C570.966 497.993 572.545 499.449 574.487 499.449C576.435 499.449 578.012 497.993 578.012 496.197ZM507.332 496.197C507.332 494.4 505.756 492.945 503.808 492.945C501.865 492.945 500.286 494.4 500.286 496.197C500.286 497.993 501.865 499.449 503.808 499.449C505.756 499.449 507.332 497.993 507.332 496.197ZM319.245 632.826C319.245 631.029 317.669 629.574 315.723 629.574C313.778 629.574 312.199 631.029 312.199 632.826C312.199 634.625 313.778 636.081 315.723 636.081C317.669 636.081 319.245 634.625 319.245 632.826ZM675.04 653.519C675.04 651.726 673.46 650.267 671.515 650.267C669.57 650.267 667.993 651.726 667.993 653.519C667.993 655.318 669.57 656.774 671.515 656.774C673.46 656.774 675.04 655.318 675.04 653.519ZM55.5981 584.169C55.5981 582.372 54.0217 580.917 52.0734 580.917C50.1312 580.917 48.5517 582.372 48.5517 584.169C48.5517 585.965 50.1312 587.421 52.0734 587.421C54.0217 587.421 55.5981 585.965 55.5981 584.169ZM194.004 139.206C194.004 137.41 192.428 135.954 190.482 135.954C188.537 135.954 186.961 137.41 186.961 139.206C186.961 141.003 188.537 142.461 190.482 142.461C192.428 142.461 194.004 141.003 194.004 139.206Z" fill="#FFD025"/>
<path d="M-28 756.856V1606H1440.03V756.862L706.005 506L-28 756.856Z" fill="#EEEEEF"/>
<path d="M796.15 527.648C796.15 486.9 759.289 453.869 713.817 453.869C668.345 453.869 631.48 486.9 631.48 527.648C631.48 568.393 668.345 601.428 713.817 601.428C759.289 601.428 796.15 568.393 796.15 527.648Z" fill="#EEEEEF"/>
<path d="M704.22 362.594C704.22 357.294 708.514 353 713.814 353C719.114 353 723.414 357.294 723.414 362.594C723.414 367.894 719.114 372.188 713.814 372.188C708.514 372.188 704.22 367.894 704.22 362.594Z" fill="#EEEEEF"/>
<path d="M696.34 389.758C696.34 380.106 704.16 372.286 713.812 372.286C723.464 372.286 731.294 380.106 731.294 389.758C731.294 399.41 723.464 407.23 713.812 407.23C704.16 407.23 696.34 399.41 696.34 389.758Z" fill="#EEEEEF"/>
<path d="M678.598 412.882C678.598 398.22 690.476 386.342 705.138 386.342C719.8 386.342 731.694 398.22 731.694 412.882C731.694 427.544 719.8 439.422 705.138 439.422C690.476 439.422 678.598 427.544 678.598 412.882Z" fill="#EEEEEF"/>
<path d="M709.156 423.918C709.156 408.428 721.705 395.879 737.195 395.879C752.686 395.879 765.252 408.428 765.252 423.918C765.252 439.409 752.686 451.958 737.195 451.958C721.705 451.958 709.156 439.409 709.156 423.918Z" fill="#EEEEEF"/>
<path d="M685.82 451.772C685.82 434.278 699.993 420.105 717.487 420.105C734.981 420.105 749.172 434.278 749.172 451.772C749.172 469.266 734.981 483.439 717.487 483.439C699.993 483.439 685.82 469.266 685.82 451.772Z" fill="#EEEEEF"/>
<path d="M685.82 451.772C685.82 434.278 699.993 420.105 717.487 420.105C734.981 420.105 749.172 434.278 749.172 451.772C749.172 469.266 734.981 483.439 717.487 483.439C699.993 483.439 685.82 469.266 685.82 451.772Z" fill="#EEEEEF"/>
<path d="M730.021 472.268C730.021 452.193 746.285 435.928 766.361 435.928C786.437 435.928 802.723 452.193 802.723 472.268C802.723 492.344 786.437 508.608 766.361 508.608C746.285 508.608 730.021 492.344 730.021 472.268Z" fill="#EEEEEF"/>
<path d="M754.336 539.013C754.336 501.019 785.116 470.239 823.11 470.239C861.103 470.239 891.925 501.019 891.925 539.013C891.925 577.006 861.103 607.786 823.11 607.786C785.116 607.786 754.336 577.006 754.336 539.013Z" fill="#EEEEEF"/>
<path d="M841.032 608.384C841.032 568.349 873.467 535.914 913.502 535.914C953.538 535.914 986.017 568.349 986.017 608.384C986.017 648.42 953.538 680.855 913.502 680.855C873.467 680.855 841.032 648.42 841.032 608.384Z" fill="#EEEEEF"/>
<path d="M841.032 608.384C841.032 568.349 873.467 535.914 913.502 535.914C953.538 535.914 986.017 568.349 986.017 608.384C986.017 648.42 953.538 680.855 913.502 680.855C873.467 680.855 841.032 648.42 841.032 608.384Z" fill="#EEEEEF"/>
<path d="M977.122 602.078C977.122 551.87 1017.8 511.193 1068.01 511.193C1118.22 511.193 1158.95 551.87 1158.95 602.078C1158.95 652.286 1118.22 692.963 1068.01 692.963C1017.8 692.963 977.122 652.286 977.122 602.078Z" fill="#EEEEEF"/>
<path d="M673.299 539.013C673.299 501.019 642.518 470.239 604.525 470.239C566.531 470.239 535.709 501.019 535.709 539.013C535.709 577.006 566.531 607.787 604.525 607.787C642.518 607.787 673.299 577.006 673.299 539.013Z" fill="#EEEEEF"/>
<path d="M586.603 608.385C586.603 568.349 554.168 535.914 514.132 535.914C474.097 535.914 441.618 568.349 441.618 608.385C441.618 648.42 474.097 680.855 514.132 680.855C554.168 680.855 586.603 648.42 586.603 608.385Z" fill="#EEEEEF"/>
<path d="M450.513 602.078C450.513 551.87 409.836 511.193 359.628 511.193C309.419 511.193 268.688 551.87 268.688 602.078C268.688 652.287 309.419 692.963 359.628 692.963C409.836 692.963 450.513 652.287 450.513 602.078Z" fill="#EEEEEF"/>
<path d="M708.944 308.651C708.944 308.651 701.501 316.006 707.923 330.82C714.435 345.838 715.072 359 715.072 359C715.072 359 715.486 346.672 722.531 331.131C729.575 315.591 722.294 308.651 722.294 308.651H708.944Z" fill="#FF8B25"/>
<path d="M710.927 308.652C710.927 308.652 705.75 313.767 710.218 324.07C714.746 334.515 715.189 343.668 715.189 343.668C715.189 343.668 715.477 335.094 720.378 324.286C725.276 313.479 720.213 308.652 720.213 308.652H710.927Z" fill="#FFB725"/>
<path d="M712.871 308.652C712.871 308.652 709.913 311.573 712.464 317.456C715.049 323.419 715.303 328.647 715.303 328.647C715.303 328.647 715.468 323.75 718.266 317.579C721.064 311.408 718.172 308.652 718.172 308.652H712.871Z" fill="#FFD025"/>
<path d="M722.132 308.651C731.791 286.322 715.457 267.005 715.457 267.005C715.457 267.005 699.123 286.322 708.782 308.651H722.132Z" fill="#EEEEEF"/>
<path d="M689.838 260.64L682 270.928L683.96 319.426L699.101 301.407L689.838 260.64Z" fill="#EF646C"/>
<path d="M740.997 260.64L748.835 270.928L746.877 319.426L732.526 301.407L740.997 260.64Z" fill="#EF646C"/>
<path d="M733.069 301.883C758.554 242.969 715.457 192 715.457 192C715.457 192 672.36 242.969 697.845 301.883H733.069Z" fill="#E13643"/>
<path d="M740.741 254.583C737.541 218.124 715.459 192 715.459 192C715.459 192 693.374 218.124 690.173 254.583C694.038 254.216 702.798 253.548 715.452 253.548C728.108 253.548 736.875 254.216 740.741 254.583Z" fill="#EEEEEF"/>
<path d="M725.94 234.814C725.94 229.024 721.247 224.331 715.457 224.331C709.668 224.331 704.975 229.024 704.975 234.814C704.975 240.603 709.668 245.296 715.457 245.296C721.247 245.296 725.94 240.603 725.94 234.814Z" fill="#3DC8F1"/>
<path d="M725.94 234.814C725.94 229.024 721.247 224.331 715.457 224.331C709.668 224.331 704.975 229.024 704.975 234.814C704.975 240.603 709.668 245.296 715.457 245.296C721.247 245.296 725.94 240.603 725.94 234.814Z" stroke="#808082" stroke-miterlimit="10"/>
<path d="M719.116 290.033C719.116 302.674 715.569 319.417 715.569 319.417C715.569 319.417 711.798 302.784 711.798 290.033C711.798 277.282 715.457 260.648 715.457 260.648C715.457 260.648 719.116 277.392 719.116 290.033Z" fill="#EF646C"/>
<g opacity="0.5">
<path opacity="0.5" d="M1107.32 240.922C1104.47 246.309 1106.54 252.982 1111.92 255.826C1117.31 258.671 1123.98 256.6 1126.83 251.222C1129.68 245.843 1126.22 233.564 1137.65 219.403C1147.93 206.662 1151.5 178.658 1151.5 178.658C1151.5 178.658 1139.48 207.239 1128.27 214.736C1117.52 221.922 1110.16 235.534 1107.32 240.922Z" fill="#E13643"/>
</g>
<g opacity="0.5">
<path opacity="0.5" d="M1109.33 238.983C1105.15 243.413 1105.36 250.395 1109.79 254.577C1114.22 258.758 1121.2 258.544 1125.38 254.125C1129.56 249.705 1130.98 239.299 1143.02 225.663C1155.49 211.555 1168.56 190.802 1168.56 190.802C1168.56 190.802 1147.03 212.049 1135.3 217.857C1123.72 223.592 1113.52 234.552 1109.33 238.983Z" fill="#E13643"/>
</g>
<path d="M1123.29 242.369C1123.83 242.779 1123.94 243.552 1123.53 244.096C1123.12 244.64 1122.35 244.749 1121.81 244.339C1121.26 243.929 1121.15 243.156 1121.56 242.611C1121.97 242.068 1122.75 241.959 1123.29 242.369Z" fill="#A3A6A9"/>
<path d="M1124.65 228.904C1125.14 229.273 1125.23 229.969 1124.87 230.458C1124.5 230.948 1123.8 231.046 1123.31 230.677C1122.82 230.308 1122.72 229.612 1123.09 229.122C1123.46 228.633 1124.16 228.535 1124.65 228.904Z" fill="#A3A6A9"/>
<path d="M1136.97 224.045C1137.4 224.362 1137.48 224.96 1137.16 225.38C1136.85 225.801 1136.25 225.885 1135.83 225.568C1135.41 225.251 1135.32 224.653 1135.64 224.232C1135.96 223.812 1136.55 223.728 1136.97 224.045Z" fill="#A3A6A9"/>
<path d="M1140.16 210.291C1140.43 210.491 1140.48 210.867 1140.28 211.132C1140.08 211.396 1139.71 211.449 1139.44 211.25C1139.18 211.05 1139.12 210.674 1139.32 210.409C1139.52 210.145 1139.9 210.092 1140.16 210.291Z" fill="#A3A6A9"/>
<path d="M1154.43 199.473C1154.64 199.635 1154.68 199.938 1154.52 200.152C1154.36 200.366 1154.06 200.408 1153.85 200.247C1153.63 200.086 1153.59 199.783 1153.75 199.569C1153.91 199.355 1154.21 199.313 1154.43 199.473Z" fill="#A3A6A9"/>
<path d="M1162.92 185.855C1163.06 185.965 1163.09 186.172 1162.98 186.317C1162.87 186.463 1162.66 186.492 1162.52 186.382C1162.37 186.272 1162.34 186.066 1162.45 185.92C1162.56 185.775 1162.77 185.746 1162.92 185.855Z" fill="#A3A6A9"/>
<path d="M1123.6 241.936C1126.22 245.977 1125.07 251.381 1121.03 254.006C1116.99 256.63 1111.59 255.481 1108.96 251.44C1106.34 247.398 1107.49 241.995 1111.53 239.371C1115.57 236.747 1120.97 237.895 1123.6 241.936Z" fill="#909294"/>
<path d="M1116.81 240.922C1117.2 241.531 1116.63 241.983 1116.08 241.867C1115.53 241.751 1114.9 242.237 1114.41 242.084C1113.92 241.931 1114.55 241.404 1114.62 241.081C1114.84 240.074 1116.41 240.311 1116.81 240.922ZM1114.91 252.322C1114.34 251.197 1113.4 251.301 1111.95 251.167C1110.89 251.068 1110.44 250.177 1109.34 250.182C1108.94 250.184 1108.82 250.629 1108.82 251.191C1108.87 251.274 1108.91 251.357 1108.96 251.439C1110.48 253.775 1112.93 255.137 1115.5 255.37C1115.33 254.511 1115.35 253.197 1114.91 252.322ZM1120.33 243.44C1118.8 243.879 1116.89 244.81 1117.79 246.195C1118.76 247.688 1116.33 248.721 1117.83 249.08C1119.34 249.441 1120.41 248.905 1121.1 248.382C1121.78 247.858 1121.16 247.257 1121.61 245.891C1122.06 244.525 1121.86 243 1120.33 243.44ZM1107.74 248.423C1108.32 248.566 1108.57 247.987 1108.73 246.93C1108.97 245.245 1109.99 245.35 1111.53 243.956C1112.9 242.711 1111.31 242.32 1110.39 240.261C1108.11 242.35 1107.14 245.469 1107.74 248.423ZM1112.63 245.776C1112.32 246.591 1110.53 246.182 1111.35 247.696C1112.18 249.21 1112.76 249.856 1113.71 249.391C1114.67 248.926 1115.58 248.624 1115.62 247.112C1115.67 245.601 1115.91 245.604 1115.13 244.532C1114.35 243.459 1112.98 244.855 1112.63 245.776ZM1117.91 238.123C1117.83 239.432 1117.6 240.802 1118.42 241.351C1119.4 241.998 1119.38 241.614 1121.13 241.029C1122.88 240.446 1121.52 242.355 1122.64 243.358C1123.76 244.358 1124.38 247.277 1124.96 247.451C1125.13 245.577 1124.7 243.636 1123.6 241.935C1122.25 239.858 1120.16 238.551 1117.91 238.123ZM1116.16 237.972C1114.81 237.989 1113.46 238.313 1112.2 238.979C1112.2 239.426 1112.3 239.873 1112.6 240.027C1113.2 240.347 1115.27 239.038 1115.72 239.242C1115.99 239.365 1116.11 238.602 1116.16 237.972ZM1124.26 250.197C1123.78 249.784 1123.18 249.342 1122.59 249.038C1121.35 248.396 1121.54 249.671 1120.93 250.117C1120.31 250.564 1119.56 250.873 1118.17 251.149C1116.77 251.426 1117.04 251.961 1117.78 253.133C1118.31 253.959 1118.22 254.48 1117.85 255.27C1118.95 255.069 1120.03 254.653 1121.03 254.005C1122.52 253.042 1123.6 251.703 1124.26 250.197Z" fill="#808082"/>
<g opacity="0.5">
<path opacity="0.5" d="M1107.79 239.594C1104.13 244.459 1105.1 251.377 1109.96 255.044C1114.83 258.71 1121.74 257.727 1125.41 252.872C1129.08 248.016 1135.36 240.431 1141.16 223.185C1146.97 205.937 1161.33 185.168 1161.33 185.168C1161.33 185.168 1137.57 204.441 1131.27 215.729C1124.97 227.017 1111.46 234.729 1107.79 239.594Z" fill="#E13643"/>
</g>
<path d="M1132.48 232.041C1131.97 231.66 1131.26 231.762 1130.88 232.266C1130.5 232.771 1130.6 233.488 1131.1 233.868C1131.61 234.248 1132.32 234.148 1132.7 233.643C1133.08 233.139 1132.98 232.421 1132.48 232.041Z" fill="#A3A6A9"/>
<path d="M1134.07 219.029C1133.62 218.688 1132.97 218.779 1132.63 219.232C1132.29 219.685 1132.38 220.328 1132.83 220.669C1133.29 221.01 1133.93 220.92 1134.27 220.467C1134.61 220.015 1134.52 219.37 1134.07 219.029Z" fill="#A3A6A9"/>
<path d="M1145.57 212.437C1145.27 212.213 1144.85 212.273 1144.62 212.57C1144.4 212.867 1144.46 213.289 1144.76 213.512C1145.05 213.736 1145.48 213.677 1145.7 213.38C1145.92 213.083 1145.86 212.661 1145.57 212.437Z" fill="#A3A6A9"/>
<path d="M1152.52 196.559C1152.29 196.387 1151.97 196.433 1151.8 196.66C1151.62 196.889 1151.67 197.212 1151.9 197.384C1152.12 197.555 1152.45 197.51 1152.62 197.282C1152.79 197.055 1152.75 196.73 1152.52 196.559Z" fill="#A3A6A9"/>
<path d="M1162.87 183.712C1162.69 183.578 1162.44 183.614 1162.3 183.791C1162.17 183.968 1162.21 184.219 1162.38 184.352C1162.56 184.485 1162.81 184.45 1162.94 184.273C1163.08 184.096 1163.04 183.845 1162.87 183.712Z" fill="#A3A6A9"/>
<path d="M1172.03 172.076C1172.01 172.058 1171.97 172.063 1171.96 172.087C1171.94 172.112 1171.94 172.146 1171.97 172.164C1171.99 172.183 1172.02 172.178 1172.04 172.154C1172.06 172.129 1172.06 172.095 1172.03 172.076Z" fill="#A3A6A9"/>
<path d="M185.336 328.147C100.059 310.736 28.3054 309.468 25.0708 325.313L30.2293 326.367C33.1489 312.061 102.339 314.106 184.767 330.934C267.196 347.764 331.649 373.005 328.728 387.311L333.887 388.362C337.121 372.517 270.613 345.559 185.336 328.147Z" fill="#FF8B25"/>
<path d="M184.343 333.01C104.972 316.805 38.4517 314.337 35.7642 327.496L69.0521 334.292C70.7594 325.929 121.584 329.241 182.571 341.693C243.557 354.145 291.612 371.019 289.905 379.383L323.192 386.179C325.878 373.019 263.714 349.216 184.343 333.01Z" fill="#FFD025"/>
<path d="M269.843 372.071C259.711 421.696 211.268 453.711 161.644 443.579C112.019 433.448 80.0036 385.005 90.1347 335.38C100.267 285.755 148.709 253.74 198.335 263.872C247.959 274.003 279.975 322.445 269.843 372.071Z" fill="#7578F4"/>
<path d="M269.843 372.071C259.711 421.696 211.268 453.711 161.644 443.579C112.019 433.448 80.0036 385.005 90.1347 335.38C100.267 285.755 148.709 253.74 198.335 263.872C247.959 274.003 279.975 322.445 269.843 372.071Z" fill="#7578F4"/>
<path d="M150.179 418.576C138.986 416.291 130.889 409.654 132.093 403.753C133.298 397.854 143.346 394.925 154.54 397.21C165.733 399.496 173.832 406.131 172.626 412.032C171.421 417.931 161.373 420.861 150.179 418.576ZM202.397 375.856C203.838 368.797 196.188 361.274 185.312 359.053C174.437 356.833 164.452 360.756 163.012 367.814C161.571 374.874 169.219 382.396 180.095 384.616C190.971 386.837 200.956 382.916 202.397 375.856ZM137.079 304.911C148.602 307.264 158.856 304.705 159.979 299.199C161.104 293.692 152.673 287.322 141.151 284.969C129.626 282.616 119.372 285.174 118.249 290.68C117.124 296.187 125.555 302.559 137.079 304.911ZM200.244 291.205C209.799 293.156 218.201 291.531 219.008 287.575C219.816 283.619 212.724 278.831 203.169 276.88C193.613 274.929 185.212 276.556 184.404 280.511C183.597 284.467 190.689 289.255 200.244 291.205ZM269.547 333.996C267.107 332.213 264.1 330.844 260.712 330.153C250.909 328.151 241.745 332.487 240.244 339.838C238.744 347.188 245.475 354.769 255.279 356.771C261.69 358.08 267.813 356.664 271.712 353.482C271.702 346.844 270.944 340.323 269.547 333.996ZM232.457 319.193C233.58 313.69 226.544 307.605 216.74 305.603C206.936 303.602 198.079 306.441 196.954 311.945C195.831 317.449 202.867 323.534 212.671 325.534C222.474 327.536 231.333 324.697 232.457 319.193ZM200.487 402.687C199.943 405.353 205.311 408.7 212.478 410.163C219.643 411.627 225.895 410.651 226.439 407.986C226.983 405.32 221.614 401.973 214.447 400.509C207.281 399.046 201.032 400.02 200.487 402.687ZM244.579 409.176C244.141 411.32 245.429 413.584 247.812 415.451C250.997 411.959 253.914 408.201 256.546 404.215C250.425 403.635 245.3 405.646 244.579 409.176ZM106.657 356.309C120.065 359.047 132.045 355.82 133.417 349.103C134.789 342.386 125.03 334.721 111.622 331.982C103.378 330.3 95.6862 330.879 90.6556 333.128C90.4827 333.88 90.2897 334.62 90.1346 335.38C89.2916 339.51 88.7671 343.63 88.4937 347.722C92.3569 351.476 98.884 354.722 106.657 356.309ZM255.908 385.464C256.893 380.638 249.209 374.995 238.745 372.859C228.282 370.722 218.999 372.903 218.014 377.728C217.028 382.555 224.714 388.197 235.177 390.334C245.642 392.47 254.923 390.289 255.908 385.464ZM207.073 431.317C197.842 429.432 189.668 431.273 188.82 435.426C188.229 438.329 191.378 441.591 196.476 443.938C204.425 442.483 212.091 440.005 219.285 436.587C216.551 434.331 212.189 432.361 207.073 431.317ZM149.149 331.236C148.239 335.694 155.902 341.023 166.265 343.14C176.627 345.255 185.767 343.356 186.678 338.9C187.587 334.442 179.924 329.113 169.561 326.999C159.199 324.883 150.059 326.78 149.149 331.236ZM251.811 306.435C254.221 306.927 256.561 306.953 258.658 306.604C254.981 300.468 250.594 294.766 245.584 289.628C242.842 290.714 240.893 292.599 240.398 295.024C239.415 299.838 244.525 304.948 251.811 306.435ZM150.991 267.689C159.166 269.358 166.324 268.12 166.977 264.922C167.104 264.296 166.967 263.642 166.612 262.98C160.668 263.858 154.871 265.313 149.291 267.299C149.847 267.44 150.412 267.571 150.991 267.689ZM116.732 396C117.437 392.547 109.633 388.041 99.3008 385.931C97.41 385.545 95.5666 385.268 93.8108 385.091C95.5749 389.925 97.7498 394.584 100.282 399.035C109.046 400.251 116.109 399.051 116.732 396Z" fill="#A3B6FC"/>
<path d="M174.233 381.918C91.804 365.089 27.3509 339.85 30.2717 325.544L25.1132 324.491C21.8775 340.335 88.3872 367.295 173.664 384.705C258.941 402.117 330.693 403.385 333.929 387.542L328.771 386.488C325.851 400.794 256.661 398.747 174.233 381.918Z" fill="#FF8B25"/>
<path d="M176.429 371.16C115.443 358.709 67.3875 341.834 69.0948 333.472L35.808 326.675C33.1216 339.834 95.2862 363.639 174.656 379.844C254.028 396.048 320.548 398.517 323.235 385.358L289.948 378.561C288.239 386.926 237.416 383.612 176.429 371.16Z" fill="#FFD025"/>
<g opacity="0.3">
<path opacity="0.3" d="M1116.16 324C1116.16 369.288 1079.44 406 1034.16 406C988.869 406 952.158 369.288 952.158 324C952.158 278.714 988.869 242 1034.16 242C1079.44 242 1116.16 278.714 1116.16 324Z" fill="#3DC8F1"/>
</g>
<g opacity="0.3">
<path opacity="0.3" d="M1111.87 324C1111.87 366.916 1077.08 401.706 1034.16 401.706C991.243 401.706 956.454 366.916 956.454 324C956.454 281.085 991.243 246.294 1034.16 246.294C1077.08 246.294 1111.87 281.085 1111.87 324Z" fill="#3DC8F1"/>
</g>
<path d="M1104.82 324C1104.82 363.023 1073.18 394.661 1034.16 394.661C995.135 394.661 963.499 363.023 963.499 324C963.499 284.977 995.135 253.343 1034.16 253.343C1073.18 253.343 1104.82 284.977 1104.82 324Z" fill="#3DC8F1"/>
<path d="M1046.9 382.452C1051.29 384.82 1055.35 387.495 1059.58 389.817C1051.69 392.868 1043.12 394.557 1034.16 394.557C1030.44 394.557 1026.79 394.263 1023.23 393.709C1017.52 391.464 1011.83 389.187 1006.67 385.666C1005.27 384.708 1004.02 383.671 1002.87 382.585C1001.61 380.438 1000.55 378.357 1000.18 376.538C999.493 373.075 996.564 370.962 992.941 369.893C991.692 368.165 990.37 366.442 988.861 364.769C986.65 362.315 984.383 359.898 982.14 357.462C981.961 353.114 982.099 348.865 981.609 347.392C981.05 345.724 976.705 345.694 972.424 346.096C971.925 345.436 971.422 344.777 970.941 344.103C968.804 341.111 966.236 338.338 964.483 335.113C963.91 331.492 963.603 327.781 963.603 323.998C963.603 307.661 969.171 292.634 978.494 280.675C979.023 289.971 979.218 299.307 979.767 308.573C980.089 313.992 980.714 319.295 981.869 324.599C982.827 329.001 982.436 333.303 983.262 337.66C984.919 346.401 989.662 354.839 996.472 360.533C1000.77 364.127 1005.03 363.944 1009.91 365.86C1013.99 367.464 1017.86 369.75 1021.81 371.654C1030.02 375.612 1038.86 378.125 1046.9 382.452ZM995.009 320.186C998.255 328.796 1004.82 335.706 1008.51 343.991C1012.13 352.104 1015.25 358.974 1022.98 364.103C1030.73 369.249 1040.98 371.349 1050.03 372.96C1059.7 374.683 1069.71 376.895 1079.5 378.042C1084.43 373.903 1088.79 369.106 1092.43 363.78C1092.41 363.765 1092.39 363.751 1092.37 363.734C1085.4 358.275 1075.09 356.952 1066.82 354.288C1050.74 349.104 1033.15 346.128 1020.1 334.531C1013.94 329.058 1012.15 319.579 1009.77 312.031C1007.02 303.298 1005.74 294.126 1005.48 284.99C1005.25 276.705 1004.92 268.399 1004.11 260.156C1000.49 261.861 997.044 263.874 993.792 266.146C991.768 275.328 990.696 284.652 990.643 294.09C990.594 302.846 991.908 311.96 995.009 320.186ZM1024.22 269.101C1025.3 282.185 1026.63 295.19 1029.61 307.987C1032.66 321.065 1036.48 331.413 1048.17 339.201C1053.32 342.626 1059.69 345.47 1065.6 347.393C1073.08 349.828 1081.12 349.091 1088.77 351.468C1091.76 352.396 1094.77 353.476 1097.8 354.494C1099.1 351.793 1100.21 348.99 1101.16 346.113C1100.63 345.909 1100.11 345.719 1099.57 345.498C1095.01 343.615 1090.38 341.497 1086.22 338.839C1082.78 336.641 1080.14 333.646 1076.83 331.301C1070.9 327.086 1063.31 325.091 1056.96 321.432C1050.77 317.869 1043.8 312.351 1039.79 306.416C1035.2 299.629 1033.22 290.345 1032.14 282.328C1031.68 278.966 1030.24 273.799 1030.92 270.504C1031.66 266.869 1035.36 264.291 1036.34 260.655C1036.92 258.53 1037.13 256.078 1037.13 253.518C1036.15 253.477 1035.16 253.443 1034.16 253.443C1028.09 253.443 1022.21 254.211 1016.59 255.652C1017.41 260.807 1019.65 265.418 1024.22 269.101ZM1052.02 276.669C1052.77 281.932 1053.64 288.49 1056.71 293.046C1059.52 297.225 1064.67 299.73 1068.52 302.848C1075.76 308.713 1091.74 315.236 1103.96 313.717C1103.58 311.088 1103.05 308.505 1102.39 305.978C1100.31 306.116 1098.18 305.729 1096.74 304.12C1096.36 303.685 1095.89 303.262 1095.38 302.848C1093.72 302.694 1092.01 302.397 1090.22 301.901C1086.2 300.79 1082.17 299.229 1078.82 296.707C1073.8 292.945 1075.61 289.723 1074.32 284.329C1073.55 281.124 1072.93 277.922 1072.36 274.717C1070.24 273.015 1068.27 271.111 1067.26 268.969C1066.27 266.875 1066.01 263.945 1066.08 261.085C1061.58 258.798 1056.82 256.961 1051.83 255.675C1050.3 262.484 1051.1 270.125 1052.02 276.669Z" fill="#29B173"/>
<path d="M1000.18 376.538C999.493 373.077 996.562 370.962 992.939 369.893C990.948 369.305 988.752 369.029 986.595 369.029C983.147 369.029 982.37 363.163 982.138 357.463C981.959 353.117 982.097 348.865 981.607 347.393C981.048 345.724 976.705 345.694 972.424 346.096C970.634 346.264 968.855 346.505 967.369 346.736C973.861 365.812 988.273 381.224 1006.71 389.017C1005.56 386.926 1004.12 384.724 1002.87 382.588C1001.61 380.439 1000.55 378.359 1000.18 376.538Z" fill="#EEEEEF"/>
<path d="M1067.25 268.969C1068.26 271.11 1070.24 273.015 1072.36 274.719C1075.81 277.507 1079.62 279.752 1080.11 281.591C1080.91 284.55 1077.43 292.349 1080.11 294.48C1082.52 296.392 1090.93 299.22 1095.38 302.85C1095.89 303.264 1096.35 303.686 1096.74 304.121C1098.18 305.731 1100.31 306.118 1102.38 305.979C1097.21 286.359 1083.8 270.094 1066.08 261.085C1066.01 263.944 1066.27 266.874 1067.25 268.969Z" fill="#EEEEEF"/>
<path d="M963.603 257.168C963.603 263.686 958.318 268.969 951.8 268.969C945.284 268.969 940 263.686 940 257.168C940 250.65 945.284 245.366 951.8 245.366C958.318 245.366 963.603 250.65 963.603 257.168Z" fill="#909294"/>
<path d="M956.645 251.013C956.645 251.996 955.662 252.087 955.125 251.551C954.587 251.015 953.515 251.103 953.068 250.565C952.622 250.029 953.736 249.901 954.051 249.584C955.035 248.6 956.645 250.029 956.645 251.013ZM946.094 262.548C946.273 260.85 945.136 260.281 943.591 259.061C942.462 258.17 942.607 256.825 941.356 256.019C940.9 255.725 940.43 256.139 940.019 256.779C940.015 256.909 940 257.034 940 257.166C940 260.934 941.772 264.281 944.52 266.442C944.96 265.344 945.956 263.867 946.094 262.548ZM958.789 256.467C956.734 255.841 953.872 255.485 953.872 257.72C953.872 260.125 950.354 259.508 951.801 261.028C953.247 262.548 954.855 262.726 956.018 262.635C957.181 262.547 956.913 261.405 958.433 260.189C959.952 258.972 960.847 257.093 958.789 256.467ZM940.828 252.841C941.384 253.432 942.102 252.961 943.055 251.877C944.574 250.146 945.647 251.015 948.42 250.565C950.892 250.164 949.385 248.554 949.856 245.538C945.725 246.225 942.326 249.048 940.828 252.841ZM948.329 253.443C947.38 254.14 945.647 252.355 945.469 254.681C945.29 257.005 945.469 258.165 946.9 258.343C948.329 258.524 949.581 258.849 950.742 257.166C951.905 255.483 952.173 255.663 952.084 253.875C951.996 252.087 949.402 252.654 948.329 253.443ZM959.957 248.652C958.904 250.08 957.632 251.462 958.165 252.693C958.789 254.143 959.058 253.697 961.472 254.322C963.885 254.949 960.936 256.11 961.472 258.077C962.006 260.037 960.548 263.797 961.09 264.428C962.659 262.425 963.601 259.908 963.601 257.166C963.601 253.815 962.2 250.799 959.957 248.652ZM958.084 247.19C956.544 246.219 954.767 245.587 952.856 245.418C952.524 245.925 952.313 246.51 952.532 246.901C952.979 247.707 956.286 247.741 956.645 248.304C956.861 248.644 957.561 247.866 958.084 247.19ZM958.272 267.03C958.024 266.201 957.673 265.261 957.228 264.481C956.291 262.838 955.571 264.426 954.548 264.481C953.523 264.536 952.441 264.335 950.655 263.62C948.866 262.906 948.776 263.71 948.756 265.587C948.741 266.909 948.257 267.434 947.262 268.061C948.66 268.644 950.192 268.969 951.801 268.969C954.191 268.969 956.413 268.251 958.272 267.03Z" fill="#808082"/>
</g>
<defs>
<clipPath id="clip0_119_906">
<rect width="1440" height="588" fill="white"/>
</clipPath>
</defs>
</svg>
