<svg width="849" height="234" viewBox="0 0 849 234" fill="none" xmlns="http://www.w3.org/2000/svg">
<path d="M408.454 139.518C409.054 139.26 411.454 137.457 412.139 137.457C412.825 137.457 418.262 138.058 418.262 138.058L420.375 138.917C420.375 138.917 421.396 141.13 421.482 141.441C421.568 141.751 421.568 142.524 421.482 143.039C421.396 143.555 422.596 144.671 421.139 144.843C419.682 145.015 411.197 145.444 410.939 145.444C410.682 145.444 407.854 146.217 407.854 145.444C407.854 144.671 408.454 139.518 408.454 139.518Z" fill="#E1B600"/>
<path d="M386.509 162.501L393.142 152.8L403.974 148.144L410.719 145.909H421.976L433.269 151.437L438.277 154.389L446.796 168.356V183.462L442.367 193.251L435.622 202.154L423.003 208.753L407.332 208.684L393.765 201.875L385.521 191.908L382.348 173.339L386.509 162.501Z" fill="#FFFBE4"/>
<path d="M414.877 127.952V-194.653" stroke="black" stroke-width="3.93224" stroke-linecap="round" stroke-linejoin="round"/>
<path d="M384.907 163.897L443.931 163.659L446.796 173.38L444.918 185.951L443.931 192.092L384.907 190.607L382.348 178.595L383.644 169.37L384.907 163.897Z" fill="#FBC351"/>
<path d="M388 160.322L392.54 163.308L400.035 156.895L407.054 163.308L414.878 156.895L421.865 163.898C421.865 163.898 429.183 156.895 429.718 156.895C430.253 156.895 436.881 163.898 436.881 163.898L441.754 160.089L444.919 163.898C444.919 163.898 442.699 165.347 442.942 165.941C443.185 166.536 437.224 170.865 437.224 170.865L430.253 164.453L422.368 170.865L414.878 163.898L407.397 170.865L400.035 163.88L392.312 170.865L385.822 164.292L388 160.322Z" fill="#EB6307"/>
<path d="M441.826 194.182L437.285 191.197L429.79 197.609L422.771 191.197L414.948 197.609L407.96 190.607C407.96 190.607 400.642 197.609 400.107 197.609C399.572 197.609 392.944 190.607 392.944 190.607L388.071 194.415L384.907 190.607C384.907 190.607 387.126 189.157 386.884 188.563C386.641 187.968 392.601 183.639 392.601 183.639L399.572 190.052L407.458 183.639L414.948 190.607L422.428 183.639L429.79 190.624L437.514 183.639L444.003 190.212L441.826 194.182Z" fill="#EB6307"/>
<path d="M399.721 173.38L403.2 177.729L399.125 181.282C399.125 181.282 398.279 180.365 397.902 180.022C397.525 179.678 396.871 177.331 396.871 177.331L398.439 174.067L399.721 173.38Z" fill="#EB6307"/>
<path d="M414.563 173.38L418.041 177.729L413.967 181.282C413.967 181.282 413.121 180.365 412.744 180.022C412.367 179.678 411.713 177.331 411.713 177.331L413.281 174.067L414.563 173.38Z" fill="#EB6307"/>
<path d="M429.403 173.38L432.882 177.729L428.808 181.282C428.808 181.282 427.962 180.365 427.585 180.022C427.208 179.678 426.554 177.331 426.554 177.331L428.122 174.067L429.403 173.38Z" fill="#EB6307"/>
<path d="M444.604 173.38L448.082 177.729L444.008 181.282C444.008 181.282 443.162 180.365 442.785 180.022C442.408 179.678 441.754 177.331 441.754 177.331L443.322 174.067L444.604 173.38Z" fill="#EB6307"/>
<path d="M385.822 173.041L389.301 177.389L385.227 180.943C385.227 180.943 384.381 180.026 384.004 179.683C383.627 179.339 382.973 176.992 382.973 176.992L384.541 173.728L385.822 173.041Z" fill="#EB6307"/>
<path d="M422.582 144.781V141.428C422.582 138.761 420.526 136.567 417.918 136.351V134.254C419.487 133.23 420.469 131.454 420.469 129.552C420.469 126.462 417.96 123.948 414.877 123.948C411.793 123.948 409.284 126.462 409.284 129.552C409.284 131.454 410.266 133.23 411.835 134.254V136.352C409.228 136.567 407.172 138.761 407.172 141.428V144.781C392.436 148.277 381.438 161.569 381.438 177.389C381.438 195.864 396.438 210.895 414.877 210.895C433.315 210.895 448.316 195.864 448.316 177.389C448.316 161.569 437.318 148.277 422.582 144.781ZM437.964 183.068C437.534 182.641 436.842 182.641 436.412 183.068L429.751 189.67L423.089 183.068C422.659 182.641 421.967 182.641 421.538 183.068L414.876 189.67L408.217 183.068C407.787 182.642 407.095 182.642 406.665 183.068L400.003 189.67L393.342 183.068C392.912 182.642 392.22 182.642 391.79 183.068L385.855 188.951C384.992 186.786 384.364 184.503 384.003 182.134L384.414 182.545C384.621 182.753 384.901 182.869 385.194 182.869C385.487 182.869 385.767 182.753 385.974 182.545L390.34 178.171C390.771 177.739 390.771 177.039 390.34 176.607L385.974 172.232C385.543 171.8 384.845 171.801 384.414 172.232L384.003 172.644C384.364 170.274 384.992 167.992 385.855 165.827L391.79 171.711C392.22 172.137 392.913 172.137 393.342 171.711L400.004 165.109L406.665 171.711C407.095 172.137 407.787 172.137 408.217 171.711L414.877 165.109L421.538 171.711C421.968 172.137 422.66 172.137 423.089 171.711L429.751 165.109L436.412 171.711C436.627 171.924 436.908 172.031 437.188 172.031C437.469 172.031 437.749 171.924 437.964 171.711L443.899 165.827C444.761 167.992 445.39 170.275 445.751 172.645L445.34 172.233C444.909 171.801 444.21 171.801 443.779 172.233L439.413 176.607C439.207 176.815 439.09 177.096 439.09 177.389C439.09 177.683 439.207 177.963 439.413 178.171L443.779 182.546C443.995 182.762 444.277 182.87 444.559 182.87C444.842 182.87 445.124 182.762 445.34 182.546L445.751 182.134C445.39 184.504 444.761 186.787 443.899 188.952L437.964 183.068ZM442.941 191.112C442.552 191.906 442.132 192.681 441.68 193.436L437.964 189.751C437.534 189.325 436.842 189.325 436.412 189.751L429.751 196.353L423.089 189.751C422.659 189.325 421.967 189.325 421.538 189.751L414.876 196.353L408.217 189.752C407.787 189.325 407.095 189.325 406.665 189.752L400.003 196.353L393.342 189.752C392.912 189.325 392.22 189.325 391.79 189.752L388.073 193.436C387.621 192.681 387.2 191.906 386.812 191.112L392.566 185.409L399.228 192.011C399.658 192.437 400.35 192.437 400.779 192.011L407.44 185.409L414.1 192.011C414.315 192.224 414.595 192.33 414.876 192.33C415.157 192.33 415.437 192.224 415.652 192.011L422.313 185.409L428.975 192.011C429.405 192.437 430.097 192.437 430.527 192.011L437.188 185.409L442.941 191.112ZM383.644 177.388C383.644 176.957 383.655 176.529 383.673 176.102L385.194 174.578L387.999 177.389L385.194 180.2L383.673 178.676C383.655 178.249 383.644 177.82 383.644 177.388ZM386.812 163.666C387.2 162.872 387.621 162.097 388.072 161.343L391.79 165.027C392.005 165.24 392.286 165.346 392.566 165.346C392.847 165.346 393.127 165.24 393.342 165.027L400.003 158.425L406.665 165.027C407.095 165.453 407.787 165.453 408.217 165.027L414.876 158.425L421.538 165.027C421.968 165.454 422.66 165.454 423.089 165.027L429.751 158.425L436.412 165.027C436.842 165.454 437.534 165.453 437.964 165.027L441.681 161.343C442.132 162.097 442.553 162.872 442.942 163.666L437.188 169.37L430.527 162.768C430.097 162.341 429.405 162.341 428.975 162.768L422.313 169.37L415.652 162.768C415.222 162.341 414.53 162.341 414.1 162.768L407.441 169.37L400.78 162.768C400.35 162.341 399.658 162.341 399.228 162.768L392.566 169.37L386.812 163.666ZM446.109 177.388C446.109 177.82 446.098 178.248 446.081 178.676L444.559 180.2L441.754 177.389L444.559 174.578L446.081 176.102C446.098 176.529 446.109 176.958 446.109 177.388ZM411.491 129.552C411.491 127.682 413.01 126.16 414.877 126.16C416.743 126.16 418.262 127.681 418.262 129.552C418.262 130.85 417.507 132.051 416.338 132.613C415.955 132.797 415.712 133.185 415.712 133.61V136.333H414.042V133.61C414.042 133.184 413.798 132.797 413.415 132.613C412.247 132.051 411.491 130.85 411.491 129.552ZM409.379 141.428C409.379 139.838 410.67 138.544 412.257 138.544H417.497C419.084 138.544 420.375 139.838 420.375 141.428V144.337C418.585 144.039 416.749 143.882 414.877 143.882C413.004 143.882 411.168 144.039 409.378 144.337V141.428H409.379ZM414.877 146.093C425.442 146.093 434.798 151.379 440.453 159.448L437.188 162.685L430.527 156.083C430.096 155.657 429.404 155.657 428.975 156.083L422.313 162.685L415.652 156.083C415.222 155.657 414.53 155.657 414.1 156.083L407.44 162.685L400.779 156.083C400.35 155.657 399.658 155.657 399.228 156.083L392.566 162.685L389.3 159.449C394.955 151.379 404.311 146.093 414.877 146.093ZM414.877 208.684C404.311 208.684 394.955 203.398 389.301 195.329L392.566 192.093L399.228 198.695C399.658 199.121 400.35 199.121 400.779 198.695L407.44 192.093L414.1 198.695C414.315 198.908 414.595 199.014 414.876 199.014C415.157 199.014 415.437 198.908 415.652 198.695L422.313 192.093L428.975 198.695C429.405 199.121 430.097 199.121 430.527 198.695L437.188 192.093L440.452 195.329C434.797 203.399 425.442 208.684 414.877 208.684Z" fill="black"/>
<path d="M400.035 180.2L397.229 177.388L400.035 174.577L402.841 177.388L400.035 180.2ZM400.815 172.231C400.384 171.8 399.686 171.8 399.255 172.231L394.889 176.607C394.458 177.038 394.458 177.738 394.889 178.17L399.255 182.545C399.462 182.753 399.742 182.869 400.035 182.869C400.328 182.869 400.608 182.753 400.815 182.545L405.182 178.17C405.389 177.963 405.505 177.682 405.505 177.388C405.505 177.095 405.389 176.814 405.182 176.606L400.815 172.231Z" fill="black"/>
<path d="M415.657 172.231C415.226 171.799 414.527 171.8 414.096 172.231L409.73 176.606C409.523 176.814 409.406 177.095 409.406 177.388C409.406 177.682 409.523 177.963 409.73 178.171L414.096 182.546C414.303 182.753 414.584 182.869 414.876 182.869C415.169 182.869 415.45 182.753 415.657 182.546L420.023 178.171C420.454 177.739 420.454 177.039 420.023 176.607L415.657 172.231ZM414.876 180.2L412.07 177.388L414.876 174.577L417.682 177.388L414.876 180.2Z" fill="black"/>
<path d="M430.498 172.231C430.067 171.8 429.368 171.8 428.937 172.231L424.571 176.607C424.14 177.038 424.14 177.738 424.571 178.17L428.937 182.546C429.144 182.753 429.425 182.869 429.718 182.869C430.01 182.869 430.291 182.753 430.498 182.546L434.864 178.17C435.071 177.963 435.187 177.682 435.187 177.388C435.187 177.095 435.071 176.814 434.864 176.606L430.498 172.231ZM429.718 180.2L426.912 177.388L429.718 174.577L432.524 177.388L429.718 180.2Z" fill="black"/>
<path d="M708.534 161.908C709.134 161.65 711.534 159.847 712.219 159.847C712.905 159.847 718.342 160.448 718.342 160.448L720.455 161.307C720.455 161.307 721.476 163.52 721.562 163.83C721.648 164.141 721.648 164.914 721.562 165.429C721.476 165.945 722.676 167.061 721.219 167.233C719.762 167.405 711.277 167.834 711.019 167.834C710.762 167.834 707.934 168.607 707.934 167.834C707.934 167.061 708.534 161.908 708.534 161.908Z" fill="#E1B600"/>
<path d="M686.589 184.891L693.222 175.189L704.054 170.533L710.799 168.299H722.056L733.349 173.826L738.357 176.779L746.877 190.746V205.852L742.447 215.641L735.702 224.543L723.083 231.143L707.412 231.073L693.845 224.265L685.601 214.298L682.428 195.729L686.589 184.891Z" fill="#FFFBE4"/>
<path d="M714.957 150.342V-172.264" stroke="black" stroke-width="3.93224" stroke-linecap="round" stroke-linejoin="round"/>
<path d="M684.987 186.287L744.011 186.049L746.877 195.77L744.998 208.34L744.011 214.482L684.987 212.997L682.428 200.984L683.724 191.76L684.987 186.287Z" fill="#FBC351"/>
<path d="M688.08 182.712L692.621 185.697L700.116 179.285L707.134 185.697L714.958 179.285L721.946 186.287C721.946 186.287 729.263 179.285 729.798 179.285C730.333 179.285 736.961 186.287 736.961 186.287L741.834 182.479L744.999 186.287C744.999 186.287 742.779 187.737 743.022 188.331C743.265 188.926 737.304 193.255 737.304 193.255L730.333 186.842L722.448 193.255L714.958 186.287L707.477 193.255L700.116 186.27L692.392 193.255L685.902 186.682L688.08 182.712Z" fill="#EB6307"/>
<path d="M741.906 216.572L737.365 213.587L729.87 219.999L722.851 213.587L715.028 219.999L708.04 212.997C708.04 212.997 700.722 219.999 700.187 219.999C699.652 219.999 693.024 212.997 693.024 212.997L688.151 216.805L684.987 212.997C684.987 212.997 687.206 211.547 686.964 210.953C686.721 210.358 692.681 206.029 692.681 206.029L699.652 212.441L707.538 206.029L715.028 212.997L722.509 206.029L729.87 213.014L737.594 206.029L744.084 212.602L741.906 216.572Z" fill="#EB6307"/>
<path d="M699.801 195.77L703.28 200.118L699.205 203.672C699.205 203.672 698.359 202.755 697.982 202.412C697.605 202.068 696.951 199.721 696.951 199.721L698.519 196.457L699.801 195.77Z" fill="#EB6307"/>
<path d="M714.643 195.77L718.121 200.118L714.047 203.672C714.047 203.672 713.202 202.755 712.824 202.412C712.447 202.068 711.793 199.721 711.793 199.721L713.362 196.457L714.643 195.77Z" fill="#EB6307"/>
<path d="M729.483 195.77L732.962 200.118L728.888 203.672C728.888 203.672 728.042 202.755 727.665 202.412C727.288 202.068 726.634 199.721 726.634 199.721L728.202 196.457L729.483 195.77Z" fill="#EB6307"/>
<path d="M744.684 195.77L748.162 200.118L744.088 203.672C744.088 203.672 743.243 202.755 742.865 202.412C742.488 202.068 741.834 199.721 741.834 199.721L743.403 196.457L744.684 195.77Z" fill="#EB6307"/>
<path d="M685.902 195.431L689.381 199.779L685.307 203.332C685.307 203.332 684.461 202.416 684.084 202.072C683.707 201.729 683.053 199.382 683.053 199.382L684.621 196.118L685.902 195.431Z" fill="#EB6307"/>
<path d="M722.662 167.171V163.818C722.662 161.151 720.606 158.957 717.998 158.741V156.644C719.568 155.619 720.549 153.843 720.549 151.942C720.549 148.852 718.04 146.338 714.957 146.338C711.873 146.338 709.364 148.852 709.364 151.942C709.364 153.843 710.346 155.62 711.915 156.644V158.741C709.308 158.957 707.252 161.151 707.252 163.818V167.171C692.516 170.667 681.518 183.959 681.518 199.779C681.518 218.254 696.519 233.285 714.957 233.285C733.395 233.285 748.396 218.254 748.396 199.779C748.396 183.959 737.398 170.667 722.662 167.171ZM738.044 205.457C737.614 205.031 736.922 205.031 736.492 205.457L729.831 212.059L723.169 205.457C722.739 205.031 722.047 205.031 721.618 205.457L714.956 212.059L708.297 205.457C707.867 205.031 707.175 205.031 706.745 205.457L700.083 212.059L693.422 205.457C692.992 205.031 692.3 205.031 691.87 205.457L685.935 211.341C685.072 209.176 684.444 206.893 684.083 204.524L684.494 204.935C684.701 205.143 684.981 205.259 685.274 205.259C685.567 205.259 685.847 205.143 686.054 204.935L690.42 200.561C690.851 200.129 690.851 199.429 690.42 198.997L686.054 194.622C685.623 194.19 684.925 194.19 684.494 194.622L684.083 195.034C684.444 192.664 685.072 190.382 685.935 188.217L691.87 194.101C692.3 194.527 692.993 194.527 693.422 194.101L700.084 187.499L706.745 194.101C707.175 194.527 707.867 194.527 708.297 194.101L714.957 187.499L721.618 194.101C722.048 194.527 722.74 194.527 723.169 194.101L729.831 187.499L736.492 194.101C736.707 194.314 736.988 194.421 737.268 194.421C737.549 194.421 737.829 194.314 738.044 194.101L743.979 188.217C744.841 190.382 745.47 192.665 745.831 195.034L745.42 194.623C744.989 194.19 744.29 194.191 743.859 194.623L739.494 198.997C739.287 199.204 739.17 199.486 739.17 199.779C739.17 200.073 739.287 200.353 739.494 200.561L743.859 204.936C744.075 205.151 744.357 205.26 744.64 205.26C744.922 205.26 745.205 205.151 745.42 204.936L745.831 204.524C745.47 206.894 744.841 209.176 743.979 211.342L738.044 205.457ZM743.021 213.502C742.632 214.296 742.212 215.071 741.76 215.825L738.044 212.141C737.614 211.715 736.922 211.715 736.492 212.141L729.831 218.743L723.169 212.141C722.739 211.715 722.047 211.715 721.618 212.141L714.956 218.743L708.297 212.142C707.867 211.715 707.175 211.715 706.745 212.142L700.083 218.743L693.422 212.142C692.992 211.715 692.3 211.715 691.87 212.142L688.153 215.825C687.701 215.071 687.28 214.296 686.892 213.502L692.646 207.799L699.308 214.401C699.738 214.827 700.43 214.827 700.859 214.401L707.521 207.799L714.18 214.401C714.395 214.614 714.675 214.72 714.956 214.72C715.237 214.72 715.517 214.614 715.732 214.401L722.394 207.799L729.055 214.401C729.485 214.827 730.177 214.827 730.607 214.401L737.268 207.799L743.021 213.502ZM683.725 199.778C683.725 199.347 683.736 198.918 683.753 198.491L685.274 196.968L688.079 199.779L685.274 202.59L683.753 201.065C683.736 200.638 683.725 200.21 683.725 199.778ZM686.892 186.056C687.28 185.262 687.701 184.487 688.153 183.732L691.87 187.417C692.085 187.63 692.366 187.736 692.646 187.736C692.927 187.736 693.207 187.63 693.422 187.417L700.083 180.815L706.745 187.417C707.175 187.843 707.867 187.843 708.297 187.417L714.956 180.815L721.618 187.417C722.048 187.843 722.74 187.843 723.169 187.417L729.831 180.815L736.492 187.417C736.922 187.843 737.614 187.843 738.044 187.417L741.761 183.732C742.213 184.487 742.633 185.262 743.022 186.056L737.268 191.76L730.607 185.158C730.177 184.731 729.485 184.731 729.055 185.158L722.394 191.76L715.732 185.158C715.302 184.731 714.61 184.731 714.18 185.158L707.521 191.759L700.86 185.157C700.43 184.731 699.738 184.731 699.308 185.157L692.646 191.759L686.892 186.056ZM746.189 199.778C746.189 200.209 746.178 200.638 746.161 201.065L744.639 202.59L741.834 199.779L744.639 196.968L746.161 198.492C746.178 198.919 746.189 199.347 746.189 199.778ZM711.571 151.942C711.571 150.072 713.09 148.549 714.957 148.549C716.823 148.549 718.342 150.071 718.342 151.942C718.342 153.24 717.587 154.441 716.418 155.003C716.035 155.187 715.792 155.575 715.792 156V158.723H714.122V156C714.122 155.574 713.878 155.187 713.495 155.003C712.327 154.441 711.571 153.24 711.571 151.942ZM709.459 163.818C709.459 162.227 710.75 160.934 712.337 160.934H717.577C719.164 160.934 720.455 162.227 720.455 163.818V166.727C718.665 166.429 716.829 166.272 714.957 166.272C713.084 166.272 711.248 166.429 709.458 166.727V163.818H709.459ZM714.957 168.483C725.522 168.483 734.878 173.768 740.533 181.838L737.268 185.075L730.607 178.473C730.176 178.047 729.484 178.047 729.055 178.473L722.394 185.075L715.732 178.473C715.302 178.047 714.61 178.047 714.18 178.473L707.521 185.075L700.859 178.473C700.43 178.047 699.738 178.047 699.308 178.473L692.646 185.075L689.38 181.839C695.035 173.769 704.391 168.483 714.957 168.483ZM714.957 231.074C704.391 231.074 695.035 225.788 689.381 217.719L692.646 214.482L699.308 221.085C699.738 221.511 700.43 221.511 700.859 221.085L707.521 214.483L714.18 221.084C714.395 221.298 714.675 221.404 714.956 221.404C715.237 221.404 715.517 221.298 715.732 221.085L722.394 214.483L729.055 221.085C729.485 221.511 730.177 221.511 730.607 221.085L737.268 214.483L740.532 217.719C734.878 225.788 725.522 231.074 714.957 231.074Z" fill="black"/>
<path d="M700.115 202.59L697.309 199.778L700.115 196.967L702.921 199.778L700.115 202.59ZM700.895 194.621C700.464 194.19 699.766 194.19 699.335 194.621L694.969 198.997C694.538 199.428 694.538 200.128 694.969 200.56L699.335 204.935C699.542 205.143 699.822 205.259 700.115 205.259C700.408 205.259 700.689 205.143 700.895 204.935L705.262 200.56C705.469 200.353 705.586 200.072 705.586 199.778C705.586 199.485 705.469 199.204 705.262 198.996L700.895 194.621Z" fill="black"/>
<path d="M715.737 194.621C715.306 194.189 714.607 194.19 714.176 194.621L709.81 198.996C709.603 199.204 709.486 199.485 709.486 199.778C709.486 200.072 709.603 200.353 709.81 200.561L714.176 204.936C714.383 205.143 714.664 205.259 714.957 205.259C715.249 205.259 715.53 205.143 715.737 204.936L720.103 200.561C720.534 200.129 720.534 199.429 720.103 198.997L715.737 194.621ZM714.956 202.59L712.15 199.778L714.956 196.967L717.762 199.778L714.956 202.59Z" fill="black"/>
<path d="M730.578 194.621C730.147 194.19 729.448 194.19 729.017 194.621L724.651 198.997C724.22 199.428 724.22 200.128 724.651 200.56L729.017 204.936C729.224 205.143 729.505 205.259 729.798 205.259C730.09 205.259 730.371 205.143 730.578 204.936L734.945 200.56C735.151 200.353 735.268 200.072 735.268 199.778C735.268 199.485 735.151 199.204 734.945 198.996L730.578 194.621ZM729.798 202.59L726.992 199.778L729.798 196.967L732.604 199.778L729.798 202.59Z" fill="black"/>
<path d="M789.848 29.7466C790.725 29.3699 794.232 26.7341 795.234 26.7341C796.237 26.7341 804.183 27.6129 804.183 27.6129L807.271 28.8683C807.271 28.8683 808.763 32.1026 808.889 32.5565C809.014 33.01 809.014 34.1404 808.889 34.8934C808.763 35.6467 810.517 37.2784 808.388 37.5292C806.258 37.7805 793.857 38.4075 793.481 38.4075C793.105 38.4075 788.971 39.5371 788.971 38.4075C788.971 37.2779 789.848 29.7466 789.848 29.7466Z" fill="#E1B600"/>
<path d="M757.776 63.3369L767.47 49.1584L783.302 42.3532L793.16 39.0872H809.612L826.118 47.1661L833.437 51.4814L845.889 71.8947V93.9727L839.415 108.28L829.556 121.291L811.114 130.937L788.21 130.835L768.381 120.884L756.332 106.317L751.694 79.1779L757.776 63.3369Z" fill="#FFFBE4"/>
<path d="M799.236 12.843V-458.658" stroke="black" stroke-width="5.74712" stroke-linecap="round" stroke-linejoin="round"/>
<path d="M755.435 65.3779L841.701 65.0293L845.889 79.2377L843.143 97.6096L841.701 106.586L755.435 104.415L751.694 86.8587L753.589 73.3764L755.435 65.3779Z" fill="#FBC351"/>
<path d="M759.954 60.1526L766.59 64.516L777.545 55.1437L787.803 64.516L799.237 55.1437L809.45 65.3783C809.45 65.3783 820.145 55.1437 820.927 55.1437C821.709 55.1437 831.396 65.3783 831.396 65.3783L838.518 59.8116L843.143 65.3783C843.143 65.3783 839.899 67.4964 840.254 68.3654C840.609 69.2348 831.897 75.562 831.897 75.562L821.709 66.1897L810.184 75.562L799.237 65.3783L788.304 75.562L777.545 65.3528L766.256 75.562L756.771 65.9549L759.954 60.1526Z" fill="#EB6307"/>
<path d="M838.624 109.64L831.988 105.277L821.034 114.649L810.775 105.277L799.341 114.649L789.128 104.415C789.128 104.415 778.433 114.649 777.651 114.649C776.869 114.649 767.182 104.415 767.182 104.415L760.06 109.981L755.436 104.415C755.436 104.415 758.679 102.296 758.324 101.428C757.969 100.558 766.681 94.2311 766.681 94.2311L776.869 103.603L788.394 94.2311L799.341 104.415L810.274 94.2311L821.034 104.44L832.322 94.2311L841.807 103.838L838.624 109.64Z" fill="#EB6307"/>
<path d="M777.085 79.2377L782.169 85.593L776.214 90.7861C776.214 90.7861 774.978 89.4468 774.427 88.9447C773.876 88.4426 772.92 85.0119 772.92 85.0119L775.212 80.2418L777.085 79.2377Z" fill="#EB6307"/>
<path d="M798.778 79.2377L803.862 85.593L797.907 90.7861C797.907 90.7861 796.671 89.4468 796.12 88.9447C795.569 88.4426 794.612 85.0119 794.612 85.0119L796.905 80.2418L798.778 79.2377Z" fill="#EB6307"/>
<path d="M820.468 79.2377L825.552 85.593L819.597 90.7861C819.597 90.7861 818.361 89.4468 817.81 88.9447C817.259 88.4426 816.303 85.0119 816.303 85.0119L818.595 80.2418L820.468 79.2377Z" fill="#EB6307"/>
<path d="M842.683 79.2377L847.767 85.593L841.812 90.7861C841.812 90.7861 840.576 89.4468 840.025 88.9447C839.474 88.4426 838.518 85.0119 838.518 85.0119L840.81 80.2418L842.683 79.2377Z" fill="#EB6307"/>
<path d="M756.771 78.7418L761.856 85.0971L755.901 90.2903C755.901 90.2903 754.665 88.9509 754.114 88.4488C753.562 87.9468 752.606 84.516 752.606 84.516L754.898 79.746L756.771 78.7418Z" fill="#EB6307"/>
<path d="M810.497 37.4391V32.5382C810.497 28.6403 807.492 25.434 803.681 25.1185V22.0533C805.975 20.556 807.409 17.9603 807.409 15.1812C807.409 10.6651 803.743 6.99115 799.236 6.99115C794.729 6.99115 791.062 10.6651 791.062 15.1812C791.062 17.9603 792.497 20.5564 794.79 22.0533V25.119C790.98 25.434 787.975 28.6407 787.975 32.5387V37.4391C766.437 42.5487 750.363 61.9757 750.363 85.0963C750.363 112.099 772.288 134.067 799.236 134.067C826.184 134.067 848.109 112.099 848.109 85.0963C848.109 61.9753 832.035 42.5483 810.497 37.4391ZM832.979 93.3961C832.351 92.7731 831.339 92.7731 830.711 93.3961L820.975 103.045L811.239 93.3961C810.611 92.7731 809.599 92.7731 808.971 93.3961L799.235 103.045L789.502 93.3961C788.874 92.7735 787.862 92.7735 787.234 93.3961L777.498 103.045L767.762 93.3961C767.134 92.7735 766.122 92.7735 765.494 93.3961L756.819 101.995C755.559 98.8307 754.641 95.4946 754.113 92.0322L754.713 92.633C755.016 92.936 755.426 93.1065 755.853 93.1065C756.281 93.1065 756.692 92.936 756.994 92.633L763.375 86.2393C764.005 85.6082 764.005 84.5848 763.375 83.9538L756.994 77.5601C756.364 76.9286 755.343 76.929 754.714 77.5601L754.113 78.1617C754.641 74.6984 755.559 71.3628 756.819 68.1989L765.494 76.7982C766.123 77.4208 767.134 77.4208 767.762 76.7982L777.498 67.1492L787.234 76.7982C787.863 77.4208 788.874 77.4208 789.503 76.7982L799.236 67.1492L808.971 76.7982C809.599 77.4213 810.611 77.4213 811.239 76.7982L820.975 67.1492L830.711 76.7982C831.025 77.1097 831.435 77.2655 831.845 77.2655C832.255 77.2655 832.665 77.1097 832.979 76.7982L841.654 68.198C842.913 71.3623 843.832 74.6988 844.36 78.1626L843.759 77.5605C843.129 76.929 842.108 76.9294 841.478 77.5605L835.097 83.9542C834.795 84.2572 834.625 84.6683 834.625 85.0972C834.625 85.5261 834.795 85.9362 835.097 86.2397L841.478 92.6334C841.793 92.9489 842.206 93.1069 842.618 93.1069C843.031 93.1069 843.444 92.9489 843.759 92.6334L844.36 92.0318C843.832 95.4951 842.913 98.8316 841.653 101.996L832.979 93.3961ZM840.253 105.154C839.685 106.314 839.07 107.447 838.41 108.549L832.979 103.165C832.351 102.542 831.339 102.542 830.711 103.165L820.975 112.814L811.239 103.165C810.611 102.542 809.599 102.542 808.971 103.165L799.235 112.814L789.502 103.165C788.874 102.542 787.862 102.542 787.234 103.165L777.498 112.814L767.762 103.165C767.134 102.542 766.122 102.542 765.494 103.165L760.061 108.549C759.401 107.447 758.786 106.314 758.218 105.153L766.628 96.8179L776.364 106.467C776.993 107.09 778.004 107.09 778.632 106.467L788.368 96.8179L798.101 106.467C798.415 106.779 798.825 106.934 799.235 106.934C799.645 106.934 800.055 106.779 800.369 106.467L810.105 96.8179L819.841 106.467C820.469 107.09 821.481 107.09 822.109 106.467L831.844 96.8179L840.253 105.154ZM753.589 85.0958C753.589 84.4657 753.605 83.8391 753.63 83.2151L755.853 80.9881L759.953 85.0963L755.853 89.2049L753.63 86.977C753.605 86.3531 753.589 85.7265 753.589 85.0958ZM758.218 65.04C758.785 63.8796 759.4 62.7469 760.061 61.6441L765.494 67.0292C765.808 67.3403 766.219 67.496 766.628 67.496C767.038 67.496 767.448 67.3403 767.762 67.0292L777.498 57.3802L787.234 67.0292C787.863 67.6522 788.874 67.6522 789.502 67.0292L799.235 57.3802L808.971 67.0292C809.599 67.6527 810.611 67.6527 811.239 67.0292L820.975 57.3802L830.711 67.0292C831.339 67.6527 832.351 67.6522 832.979 67.0292L838.411 61.6441C839.071 62.7469 839.686 63.8796 840.254 65.04L831.845 73.3765L822.109 63.7275C821.481 63.104 820.469 63.104 819.841 63.7275L810.105 73.3765L800.369 63.7275C799.741 63.104 798.729 63.104 798.101 63.7275L788.368 73.376L778.632 63.727C778.004 63.104 776.993 63.104 776.364 63.727L766.628 73.376L758.218 65.04ZM844.883 85.0958C844.883 85.726 844.867 86.3526 844.842 86.977L842.618 89.2049L838.518 85.0963L842.618 80.9881L844.842 83.2156C844.867 83.8395 844.883 84.4661 844.883 85.0958ZM794.288 15.1812C794.288 12.4476 796.508 10.2228 799.236 10.2228C801.964 10.2228 804.184 12.4472 804.184 15.1812C804.184 17.078 803.08 18.8337 801.372 19.6549C800.812 19.9236 800.456 20.4904 800.456 21.1116V25.0913H798.015V21.1116C798.015 20.4899 797.66 19.9236 797.1 19.6549C795.392 18.8337 794.288 17.078 794.288 15.1812ZM791.2 32.5382C791.2 30.2139 793.088 28.3229 795.407 28.3229H803.065C805.385 28.3229 807.271 30.2139 807.271 32.5382V36.7901C804.656 36.3545 801.972 36.1247 799.236 36.1247C796.499 36.1247 793.816 36.355 791.2 36.7901V32.5382H791.2ZM799.236 39.3564C814.678 39.3564 828.352 47.0814 836.616 58.8757L831.844 63.6065L822.109 53.9575C821.48 53.3349 820.469 53.3349 819.841 53.9575L810.105 63.6065L800.369 53.9575C799.741 53.3349 798.729 53.3349 798.101 53.9575L788.368 63.6065L778.632 53.9575C778.004 53.3345 776.993 53.3345 776.364 53.9575L766.628 63.6065L761.855 58.8762C770.119 47.0818 783.793 39.3564 799.236 39.3564ZM799.236 130.835C783.794 130.835 770.12 123.11 761.856 111.317L766.628 106.587L776.364 116.236C776.993 116.859 778.004 116.859 778.632 116.236L788.368 106.587L798.101 116.236C798.415 116.547 798.825 116.703 799.235 116.703C799.645 116.703 800.055 116.547 800.369 116.236L810.105 106.587L819.841 116.236C820.469 116.859 821.481 116.859 822.109 116.236L831.844 106.587L836.616 111.317C828.351 123.111 814.678 130.835 799.236 130.835Z" fill="black"/>
<path d="M777.544 89.2054L773.443 85.0958L777.544 80.9872L781.645 85.0958L777.544 89.2054ZM778.684 77.5587C778.054 76.9281 777.033 76.9281 776.403 77.5587L770.022 83.9533C769.392 84.5844 769.392 85.6073 770.022 86.2384L776.403 92.6329C776.706 92.936 777.116 93.1065 777.544 93.1065C777.972 93.1065 778.382 92.936 778.684 92.6329L785.066 86.2384C785.368 85.9358 785.539 85.5247 785.539 85.0958C785.539 84.6674 785.368 84.2563 785.066 83.9529L778.684 77.5587Z" fill="black"/>
<path d="M800.376 77.5583C799.747 76.9272 798.725 76.9277 798.095 77.5583L791.714 83.9529C791.412 84.2559 791.241 84.6669 791.241 85.0958C791.241 85.5247 791.412 85.9358 791.714 86.2393L798.095 92.6338C798.397 92.9364 798.808 93.106 799.236 93.106C799.664 93.106 800.074 92.9364 800.377 92.6338L806.758 86.2393C807.388 85.6077 807.388 84.5848 806.758 83.9538L800.376 77.5583ZM799.236 89.2054L795.135 85.0958L799.236 80.9868L803.337 85.0958L799.236 89.2054Z" fill="black"/>
<path d="M822.067 77.5587C821.437 76.9281 820.416 76.9281 819.786 77.5587L813.405 83.9533C812.775 84.5844 812.775 85.6073 813.405 86.2388L819.786 92.6334C820.089 92.936 820.499 93.1065 820.927 93.1065C821.354 93.1065 821.765 92.936 822.068 92.6334L828.449 86.2388C828.751 85.9358 828.921 85.5247 828.921 85.0958C828.921 84.6674 828.751 84.2563 828.449 83.9529L822.067 77.5587ZM820.927 89.2054L816.826 85.0958L820.927 80.9872L825.028 85.0958L820.927 89.2054Z" fill="black"/>
<path d="M319.174 60.037C319.774 59.7792 322.174 57.9758 322.86 57.9758C323.546 57.9758 328.983 58.577 328.983 58.577L331.096 59.436C331.096 59.436 332.117 61.649 332.202 61.9595C332.288 62.2698 332.288 63.0433 332.202 63.5584C332.117 64.0739 333.317 65.1903 331.859 65.3619C330.402 65.5338 321.917 65.9628 321.66 65.9628C321.403 65.9628 318.574 66.7357 318.574 65.9628C318.574 65.19 319.174 60.037 319.174 60.037Z" fill="#E1B600"/>
<path d="M297.23 83.0198L303.862 73.3187L314.695 68.6625L321.44 66.4279H332.696L343.99 71.9555L348.997 74.9081L357.517 88.8751V103.981L353.088 113.77L346.342 122.673L333.724 129.272L318.053 129.203L304.485 122.394L296.241 112.427L293.068 93.8583L297.23 83.0198Z" fill="#FFFBE4"/>
<path d="M325.598 48.4713V-274.134" stroke="black" stroke-width="3.93224" stroke-linecap="round" stroke-linejoin="round"/>
<path d="M295.628 84.4162L354.652 84.1777L357.517 93.8993L355.638 106.47L354.652 112.611L295.628 111.126L293.068 99.1136L294.365 89.8889L295.628 84.4162Z" fill="#FBC351"/>
<path d="M298.72 80.841L303.261 83.8266L310.756 77.4139L317.775 83.8266L325.598 77.4139L332.586 84.4165C332.586 84.4165 339.904 77.4139 340.439 77.4139C340.974 77.4139 347.602 84.4165 347.602 84.4165L352.475 80.6077L355.639 84.4165C355.639 84.4165 353.42 85.8658 353.663 86.4603C353.905 87.0552 347.945 91.3843 347.945 91.3843L340.974 84.9717L333.088 91.3843L325.598 84.4165L318.118 91.3843L310.756 84.3991L303.033 91.3843L296.543 84.8111L298.72 80.841Z" fill="#EB6307"/>
<path d="M352.546 114.701L348.006 111.716L340.511 118.128L333.492 111.716L325.669 118.128L318.681 111.126C318.681 111.126 311.363 118.128 310.828 118.128C310.293 118.128 303.665 111.126 303.665 111.126L298.792 114.934L295.628 111.126C295.628 111.126 297.847 109.676 297.604 109.082C297.361 108.487 303.322 104.158 303.322 104.158L310.293 110.571L318.178 104.158L325.669 111.126L333.149 104.158L340.511 111.143L348.234 104.158L354.724 110.731L352.546 114.701Z" fill="#EB6307"/>
<path d="M310.442 93.8992L313.92 98.2476L309.846 101.801C309.846 101.801 309 100.884 308.623 100.541C308.246 100.197 307.592 97.85 307.592 97.85L309.16 94.5863L310.442 93.8992Z" fill="#EB6307"/>
<path d="M325.284 93.8992L328.762 98.2476L324.688 101.801C324.688 101.801 323.842 100.884 323.465 100.541C323.088 100.197 322.434 97.85 322.434 97.85L324.002 94.5863L325.284 93.8992Z" fill="#EB6307"/>
<path d="M340.124 93.8992L343.603 98.2476L339.528 101.801C339.528 101.801 338.683 100.884 338.306 100.541C337.928 100.197 337.274 97.85 337.274 97.85L338.843 94.5863L340.124 93.8992Z" fill="#EB6307"/>
<path d="M355.324 93.8992L358.803 98.2476L354.729 101.801C354.729 101.801 353.883 100.884 353.506 100.541C353.129 100.197 352.475 97.85 352.475 97.85L354.043 94.5863L355.324 93.8992Z" fill="#EB6307"/>
<path d="M296.543 93.5599L300.022 97.9083L295.947 101.462C295.947 101.462 295.102 100.545 294.725 100.202C294.347 99.858 293.693 97.5107 293.693 97.5107L295.262 94.247L296.543 93.5599Z" fill="#EB6307"/>
<path d="M333.302 65.3002V61.947C333.302 59.28 331.246 57.0862 328.639 56.8703V54.7731C330.208 53.7486 331.19 51.9726 331.19 50.0711C331.19 46.9812 328.681 44.4674 325.597 44.4674C322.514 44.4674 320.005 46.9812 320.005 50.0711C320.005 51.9726 320.987 53.7489 322.556 54.7731V56.8706C319.949 57.0862 317.893 59.2803 317.893 61.9473V65.3002C303.156 68.7963 292.158 82.0884 292.158 97.9078C292.158 116.383 307.159 131.414 325.597 131.414C344.036 131.414 359.037 116.383 359.037 97.9078C359.037 82.0881 348.039 68.796 333.302 65.3002ZM348.685 103.587C348.255 103.16 347.562 103.16 347.133 103.587L340.471 110.189L333.81 103.587C333.38 103.16 332.688 103.16 332.258 103.587L325.597 110.189L318.937 103.587C318.507 103.161 317.815 103.161 317.386 103.587L310.724 110.189L304.063 103.587C303.633 103.161 302.941 103.161 302.511 103.587L296.575 109.47C295.713 107.305 295.085 105.022 294.724 102.653L295.134 103.064C295.341 103.272 295.622 103.388 295.915 103.388C296.207 103.388 296.488 103.272 296.695 103.064L301.061 98.6898C301.492 98.258 301.492 97.5578 301.061 97.126L296.695 92.7514C296.264 92.3193 295.565 92.3196 295.135 92.7514L294.724 93.163C295.085 90.7934 295.713 88.5111 296.575 86.3464L302.511 92.2301C302.941 92.6561 303.633 92.6561 304.063 92.2301L310.724 85.6282L317.386 92.2301C317.816 92.6561 318.508 92.6561 318.938 92.2301L325.597 85.6282L332.258 92.2301C332.688 92.6564 333.38 92.6564 333.81 92.2301L340.472 85.6282L347.133 92.2301C347.348 92.4433 347.628 92.5499 347.909 92.5499C348.189 92.5499 348.47 92.4433 348.685 92.2301L354.62 86.3458C355.482 88.5108 356.11 90.7937 356.472 93.1636L356.06 92.7517C355.629 92.3196 354.931 92.3199 354.5 92.7517L350.134 97.1263C349.927 97.3337 349.811 97.6149 349.811 97.9084C349.811 98.2018 349.927 98.4825 350.134 98.6901L354.5 103.065C354.715 103.281 354.998 103.389 355.28 103.389C355.563 103.389 355.845 103.281 356.061 103.065L356.472 102.653C356.111 105.023 355.482 107.306 354.62 109.471L348.685 103.587ZM353.662 111.631C353.273 112.425 352.853 113.2 352.401 113.955L348.685 110.27C348.255 109.844 347.562 109.844 347.133 110.27L340.471 116.872L333.81 110.27C333.38 109.844 332.688 109.844 332.258 110.27L325.597 116.872L318.937 110.271C318.507 109.844 317.815 109.844 317.386 110.271L310.724 116.872L304.063 110.271C303.633 109.844 302.941 109.844 302.511 110.271L298.793 113.955C298.342 113.2 297.921 112.425 297.533 111.631L303.287 105.928L309.948 112.53C310.378 112.956 311.07 112.956 311.5 112.53L318.161 105.928L324.821 112.53C325.036 112.743 325.316 112.849 325.597 112.849C325.877 112.849 326.158 112.743 326.373 112.53L333.034 105.928L339.695 112.53C340.125 112.956 340.817 112.956 341.247 112.53L347.908 105.928L353.662 111.631ZM294.365 97.9075C294.365 97.4763 294.376 97.0476 294.394 96.6207L295.915 95.0969L298.72 97.9078L295.915 100.719L294.394 99.1946C294.376 98.7677 294.365 98.3389 294.365 97.9075ZM297.532 84.1851C297.921 83.3911 298.342 82.6161 298.793 81.8615L302.511 85.5461C302.726 85.7589 303.007 85.8655 303.287 85.8655C303.567 85.8655 303.848 85.7589 304.063 85.5461L310.724 78.9441L317.386 85.5461C317.816 85.9723 318.508 85.9723 318.937 85.5461L325.597 78.9441L332.258 85.5461C332.688 85.9727 333.38 85.9727 333.81 85.5461L340.471 78.9441L347.133 85.5461C347.562 85.9727 348.255 85.9723 348.685 85.5461L352.402 81.8615C352.853 82.6161 353.274 83.3911 353.662 84.1851L347.909 89.8889L341.247 83.287C340.817 82.8604 340.125 82.8604 339.696 83.287L333.034 89.8889L326.373 83.287C325.943 82.8604 325.251 82.8604 324.821 83.287L318.161 89.8886L311.5 83.2867C311.07 82.8604 310.378 82.8604 309.949 83.2867L303.287 89.8886L297.532 84.1851ZM356.83 97.9075C356.83 98.3386 356.819 98.7674 356.801 99.1946L355.28 100.719L352.474 97.9078L355.28 95.0969L356.801 96.621C356.819 97.0479 356.83 97.4766 356.83 97.9075ZM322.212 50.0711C322.212 48.2008 323.731 46.6785 325.597 46.6785C327.464 46.6785 328.983 48.2005 328.983 50.0711C328.983 51.3689 328.228 52.5702 327.059 53.1321C326.676 53.3159 326.432 53.7037 326.432 54.1288V56.8517H324.762V54.1288C324.762 53.7034 324.519 53.3159 324.136 53.1321C322.967 52.5702 322.212 51.3689 322.212 50.0711ZM320.099 61.947C320.099 60.3567 321.391 59.0628 322.978 59.0628H328.217C329.804 59.0628 331.095 60.3567 331.095 61.947V64.8562C329.306 64.5582 327.47 64.4009 325.597 64.4009C323.725 64.4009 321.889 64.5585 320.099 64.8562V61.947H320.099ZM325.597 66.612C336.163 66.612 345.519 71.8976 351.173 79.9674L347.908 83.2042L341.247 76.6023C340.817 76.1763 340.125 76.1763 339.695 76.6023L333.034 83.2042L326.373 76.6023C325.943 76.1763 325.251 76.1763 324.821 76.6023L318.161 83.2042L311.5 76.6023C311.07 76.176 310.378 76.176 309.948 76.6023L303.287 83.2042L300.021 79.9677C305.675 71.8979 315.031 66.612 325.597 66.612ZM325.597 129.203C315.032 129.203 305.676 123.917 300.022 115.848L303.287 112.612L309.948 119.214C310.378 119.64 311.07 119.64 311.5 119.214L318.161 112.612L324.821 119.214C325.036 119.427 325.316 119.533 325.597 119.533C325.877 119.533 326.158 119.427 326.373 119.214L333.034 112.612L339.695 119.214C340.125 119.64 340.817 119.64 341.247 119.214L347.908 112.612L351.173 115.848C345.518 123.918 336.163 129.203 325.597 129.203Z" fill="black"/>
<path d="M310.756 100.719L307.95 97.9075L310.756 95.0963L313.562 97.9075L310.756 100.719ZM311.536 92.7505C311.105 92.319 310.406 92.319 309.975 92.7505L305.609 97.1257C305.178 97.5575 305.178 98.2574 305.609 98.6892L309.975 103.064C310.182 103.272 310.463 103.388 310.756 103.388C311.049 103.388 311.329 103.272 311.536 103.064L315.903 98.6892C316.109 98.4822 316.226 98.2009 316.226 97.9075C316.226 97.6143 316.109 97.3331 315.903 97.1254L311.536 92.7505Z" fill="black"/>
<path d="M326.377 92.7502C325.946 92.3184 325.247 92.3187 324.816 92.7502L320.451 97.1254C320.244 97.3328 320.127 97.614 320.127 97.9075C320.127 98.2009 320.244 98.4821 320.451 98.6898L324.816 103.065C325.023 103.272 325.304 103.388 325.597 103.388C325.89 103.388 326.17 103.272 326.378 103.065L330.744 98.6898C331.175 98.2577 331.175 97.5578 330.744 97.126L326.377 92.7502ZM325.597 100.719L322.791 97.9075L325.597 95.096L328.403 97.9075L325.597 100.719Z" fill="black"/>
<path d="M341.219 92.7505C340.788 92.319 340.089 92.319 339.658 92.7505L335.292 97.1257C334.861 97.5575 334.861 98.2574 335.292 98.6895L339.658 103.065C339.865 103.272 340.146 103.388 340.439 103.388C340.731 103.388 341.012 103.272 341.219 103.065L345.585 98.6895C345.792 98.4822 345.908 98.2009 345.908 97.9075C345.908 97.6143 345.792 97.3331 345.585 97.1254L341.219 92.7505ZM340.439 100.719L337.633 97.9075L340.439 95.0963L343.244 97.9075L340.439 100.719Z" fill="black"/>
<path d="M222.454 149.073C223.054 148.816 225.454 147.012 226.139 147.012C226.825 147.012 232.262 147.613 232.262 147.613L234.375 148.472C234.375 148.472 235.396 150.685 235.482 150.996C235.568 151.306 235.568 152.08 235.482 152.595C235.396 153.11 236.596 154.227 235.139 154.398C233.682 154.57 225.197 154.999 224.939 154.999C224.682 154.999 221.854 155.772 221.854 154.999C221.854 154.226 222.454 149.073 222.454 149.073Z" fill="#E1B600"/>
<path d="M200.509 172.056L207.142 162.355L217.974 157.699L224.719 155.464H235.976L247.269 160.992L252.277 163.944L260.796 177.911V193.017L256.367 202.806L249.622 211.709L237.003 218.309L221.332 218.239L207.765 211.431L199.521 201.463L196.348 182.895L200.509 172.056Z" fill="#FFFBE4"/>
<path d="M228.877 137.508V-185.098" stroke="black" stroke-width="3.93224" stroke-linecap="round" stroke-linejoin="round"/>
<path d="M198.907 173.453L257.931 173.214L260.796 182.936L258.918 195.506L257.931 201.648L198.907 200.162L196.348 188.15L197.644 178.925L198.907 173.453Z" fill="#FBC351"/>
<path d="M202 169.877L206.54 172.863L214.035 166.45L221.054 172.863L228.878 166.45L235.865 173.453C235.865 173.453 243.183 166.45 243.718 166.45C244.253 166.45 250.881 173.453 250.881 173.453L255.754 169.644L258.919 173.453C258.919 173.453 256.699 174.902 256.942 175.497C257.185 176.091 251.224 180.421 251.224 180.421L244.253 174.008L236.368 180.421L228.878 173.453L221.397 180.421L214.035 173.435L206.312 180.421L199.822 173.847L202 169.877Z" fill="#EB6307"/>
<path d="M255.826 203.737L251.285 200.752L243.79 207.164L236.771 200.752L228.948 207.164L221.96 200.162C221.96 200.162 214.642 207.164 214.107 207.164C213.572 207.164 206.944 200.162 206.944 200.162L202.071 203.971L198.907 200.162C198.907 200.162 201.126 198.712 200.884 198.118C200.641 197.523 206.601 193.194 206.601 193.194L213.572 199.607L221.458 193.194L228.948 200.162L236.428 193.194L243.79 200.179L251.514 193.194L258.003 199.768L255.826 203.737Z" fill="#EB6307"/>
<path d="M213.721 182.936L217.2 187.284L213.125 190.837C213.125 190.837 212.279 189.921 211.902 189.577C211.525 189.234 210.871 186.886 210.871 186.886L212.439 183.623L213.721 182.936Z" fill="#EB6307"/>
<path d="M228.563 182.936L232.041 187.284L227.967 190.837C227.967 190.837 227.121 189.921 226.744 189.577C226.367 189.234 225.713 186.886 225.713 186.886L227.281 183.623L228.563 182.936Z" fill="#EB6307"/>
<path d="M243.403 182.936L246.882 187.284L242.808 190.837C242.808 190.837 241.962 189.921 241.585 189.577C241.208 189.234 240.554 186.886 240.554 186.886L242.122 183.623L243.403 182.936Z" fill="#EB6307"/>
<path d="M258.604 182.936L262.082 187.284L258.008 190.837C258.008 190.837 257.162 189.921 256.785 189.577C256.408 189.234 255.754 186.886 255.754 186.886L257.322 183.623L258.604 182.936Z" fill="#EB6307"/>
<path d="M199.822 182.596L203.301 186.945L199.227 190.498C199.227 190.498 198.381 189.581 198.004 189.238C197.627 188.894 196.973 186.547 196.973 186.547L198.541 183.283L199.822 182.596Z" fill="#EB6307"/>
<path d="M236.582 154.336V150.983C236.582 148.316 234.526 146.123 231.918 145.907V143.809C233.487 142.785 234.469 141.009 234.469 139.107C234.469 136.017 231.96 133.504 228.877 133.504C225.793 133.504 223.284 136.017 223.284 139.107C223.284 141.009 224.266 142.785 225.835 143.809V145.907C223.228 146.123 221.172 148.317 221.172 150.984V154.336C206.436 157.833 195.438 171.125 195.438 186.944C195.438 205.42 210.438 220.451 228.877 220.451C247.315 220.451 262.316 205.42 262.316 186.944C262.316 171.124 251.318 157.832 236.582 154.336ZM251.964 192.623C251.534 192.197 250.842 192.197 250.412 192.623L243.751 199.225L237.089 192.623C236.659 192.197 235.967 192.197 235.538 192.623L228.876 199.225L222.217 192.623C221.787 192.197 221.095 192.197 220.665 192.623L214.003 199.225L207.342 192.623C206.912 192.197 206.22 192.197 205.79 192.623L199.855 198.506C198.992 196.341 198.364 194.059 198.003 191.69L198.414 192.101C198.621 192.308 198.901 192.425 199.194 192.425C199.487 192.425 199.767 192.308 199.974 192.101L204.34 187.726C204.771 187.294 204.771 186.594 204.34 186.162L199.974 181.788C199.543 181.356 198.845 181.356 198.414 181.788L198.003 182.199C198.364 179.83 198.992 177.547 199.855 175.383L205.79 181.266C206.22 181.692 206.913 181.692 207.342 181.266L214.004 174.664L220.665 181.266C221.095 181.692 221.787 181.692 222.217 181.266L228.877 174.664L235.538 181.266C235.968 181.693 236.66 181.693 237.089 181.266L243.751 174.664L250.412 181.266C250.627 181.48 250.908 181.586 251.188 181.586C251.469 181.586 251.749 181.48 251.964 181.266L257.899 175.382C258.761 177.547 259.39 179.83 259.751 182.2L259.34 181.788C258.909 181.356 258.21 181.356 257.779 181.788L253.413 186.163C253.207 186.37 253.09 186.651 253.09 186.945C253.09 187.238 253.207 187.519 253.413 187.726L257.779 192.101C257.995 192.317 258.277 192.425 258.559 192.425C258.842 192.425 259.124 192.317 259.34 192.101L259.751 191.689C259.39 194.059 258.761 196.342 257.899 198.507L251.964 192.623ZM256.941 200.668C256.552 201.462 256.132 202.237 255.68 202.991L251.964 199.307C251.534 198.88 250.842 198.88 250.412 199.307L243.751 205.909L237.089 199.307C236.659 198.88 235.967 198.88 235.538 199.307L228.876 205.909L222.217 199.307C221.787 198.88 221.095 198.88 220.665 199.307L214.003 205.909L207.342 199.307C206.912 198.88 206.22 198.88 205.79 199.307L202.073 202.991C201.621 202.236 201.2 201.461 200.812 200.667L206.566 194.964L213.228 201.566C213.658 201.993 214.35 201.993 214.779 201.566L221.44 194.964L228.1 201.566C228.315 201.779 228.595 201.886 228.876 201.886C229.157 201.886 229.437 201.779 229.652 201.566L236.313 194.964L242.975 201.566C243.405 201.993 244.097 201.993 244.527 201.566L251.188 194.964L256.941 200.668ZM197.644 186.944C197.644 186.513 197.655 186.084 197.673 185.657L199.194 184.133L201.999 186.944L199.194 189.755L197.673 188.231C197.655 187.804 197.644 187.375 197.644 186.944ZM200.812 173.221C201.2 172.427 201.621 171.652 202.072 170.898L205.79 174.582C206.005 174.795 206.286 174.902 206.566 174.902C206.847 174.902 207.127 174.795 207.342 174.582L214.003 167.98L220.665 174.582C221.095 175.009 221.787 175.009 222.217 174.582L228.876 167.98L235.538 174.582C235.968 175.009 236.66 175.009 237.089 174.582L243.751 167.98L250.412 174.582C250.842 175.009 251.534 175.009 251.964 174.582L255.681 170.898C256.132 171.652 256.553 172.427 256.942 173.221L251.188 178.925L244.527 172.323C244.097 171.897 243.405 171.897 242.975 172.323L236.313 178.925L229.652 172.323C229.222 171.897 228.53 171.897 228.1 172.323L221.441 178.925L214.78 172.323C214.35 171.897 213.658 171.897 213.228 172.323L206.566 178.925L200.812 173.221ZM260.109 186.944C260.109 187.375 260.098 187.804 260.081 188.231L258.559 189.755L255.754 186.944L258.559 184.133L260.081 185.657C260.098 186.084 260.109 186.513 260.109 186.944ZM225.491 139.107C225.491 137.237 227.01 135.715 228.877 135.715C230.743 135.715 232.262 137.237 232.262 139.107C232.262 140.405 231.507 141.606 230.338 142.168C229.955 142.352 229.712 142.74 229.712 143.165V145.888H228.042V143.165C228.042 142.74 227.798 142.352 227.415 142.168C226.247 141.606 225.491 140.405 225.491 139.107ZM223.379 150.983C223.379 149.393 224.67 148.099 226.257 148.099H231.497C233.084 148.099 234.375 149.393 234.375 150.983V153.892C232.585 153.594 230.749 153.437 228.877 153.437C227.004 153.437 225.168 153.595 223.378 153.892V150.983H223.379ZM228.877 155.648C239.442 155.648 248.798 160.934 254.453 169.004L251.188 172.241L244.527 165.639C244.096 165.213 243.404 165.213 242.975 165.639L236.313 172.241L229.652 165.639C229.222 165.213 228.53 165.213 228.1 165.639L221.44 172.241L214.779 165.639C214.35 165.212 213.658 165.212 213.228 165.639L206.566 172.241L203.3 169.004C208.955 160.934 218.311 155.648 228.877 155.648ZM228.877 218.239C218.311 218.239 208.955 212.954 203.301 204.884L206.566 201.648L213.228 208.25C213.658 208.676 214.35 208.676 214.779 208.25L221.44 201.648L228.1 208.25C228.315 208.463 228.595 208.57 228.876 208.57C229.157 208.57 229.437 208.463 229.652 208.25L236.313 201.648L242.975 208.25C243.405 208.676 244.097 208.676 244.527 208.25L251.188 201.648L254.452 204.885C248.797 212.954 239.442 218.239 228.877 218.239Z" fill="black"/>
<path d="M214.035 189.756L211.229 186.944L214.035 184.133L216.841 186.944L214.035 189.756ZM214.815 181.787C214.384 181.355 213.686 181.355 213.255 181.787L208.889 186.162C208.458 186.594 208.458 187.294 208.889 187.725L213.255 192.101C213.462 192.308 213.742 192.425 214.035 192.425C214.328 192.425 214.608 192.308 214.815 192.101L219.182 187.725C219.389 187.518 219.505 187.237 219.505 186.944C219.505 186.651 219.389 186.369 219.182 186.162L214.815 181.787Z" fill="black"/>
<path d="M229.657 181.786C229.226 181.355 228.527 181.355 228.096 181.786L223.73 186.162C223.523 186.369 223.406 186.65 223.406 186.944C223.406 187.237 223.523 187.518 223.73 187.726L228.096 192.101C228.303 192.308 228.584 192.424 228.876 192.424C229.169 192.424 229.45 192.308 229.657 192.101L234.023 187.726C234.454 187.294 234.454 186.594 234.023 186.162L229.657 181.786ZM228.876 189.756L226.07 186.944L228.876 184.132L231.682 186.944L228.876 189.756Z" fill="black"/>
<path d="M244.498 181.787C244.067 181.355 243.368 181.355 242.937 181.787L238.571 186.162C238.14 186.594 238.14 187.294 238.571 187.726L242.937 192.101C243.144 192.308 243.425 192.425 243.718 192.425C244.01 192.425 244.291 192.308 244.498 192.101L248.864 187.726C249.071 187.518 249.187 187.237 249.187 186.944C249.187 186.651 249.071 186.369 248.864 186.162L244.498 181.787ZM243.718 189.756L240.912 186.944L243.718 184.133L246.524 186.944L243.718 189.756Z" fill="black"/>
<path d="M40.811 69.3788C41.6953 68.999 45.232 66.3412 46.2425 66.3412C47.253 66.3412 55.2659 67.2273 55.2659 67.2273L58.3795 68.4932C58.3795 68.4932 59.884 71.7544 60.0102 72.2121C60.1368 72.6693 60.1368 73.8091 60.0102 74.5683C59.884 75.3279 61.6526 76.9732 59.505 77.2261C57.3578 77.4794 44.8534 78.1117 44.4744 78.1117C44.0953 78.1117 39.9268 79.2506 39.9268 78.1117C39.9268 76.9727 40.811 69.3788 40.811 69.3788Z" fill="#E1B600"/>
<path d="M8.47235 103.248L18.2466 88.952L34.2105 82.0903L44.15 78.7971H60.739L77.3818 86.9432L84.7615 91.2943L97.3171 111.877V134.139L90.7898 148.565L80.8489 161.684L62.2534 171.41L39.1591 171.307L19.165 161.274L7.0159 146.586L2.33984 119.221L8.47235 103.248Z" fill="#FFFBE4"/>
<path d="M50.2773 52.3347V-423.084" stroke="black" stroke-width="5.79488" stroke-linecap="round" stroke-linejoin="round"/>
<path d="M6.11186 105.306L93.0946 104.955L97.3171 119.281L94.5484 137.806L93.0946 146.857L6.11186 144.667L2.33984 126.966L4.25033 113.371L6.11186 105.306Z" fill="#FBC351"/>
<path d="M10.6678 100.037L17.3595 104.437L28.4047 94.987L38.748 104.437L50.2774 94.987L60.5753 105.307C60.5753 105.307 71.3592 94.987 72.1478 94.987C72.936 94.987 82.704 105.307 82.704 105.307L89.8851 99.6936L94.5482 105.307C94.5482 105.307 91.2778 107.442 91.6357 108.318C91.9932 109.195 83.2092 115.575 83.2092 115.575L72.936 106.125L61.3154 115.575L50.2774 105.307L39.2532 115.575L28.4047 105.281L17.0226 115.575L7.45898 105.888L10.6678 100.037Z" fill="#EB6307"/>
<path d="M89.9922 149.936L83.3006 145.537L72.2558 154.987L61.912 145.537L50.3827 154.987L40.0847 144.667C40.0847 144.667 29.3009 154.987 28.5122 154.987C27.724 154.987 17.9561 144.667 17.9561 144.667L10.7749 150.28L6.1123 144.667C6.1123 144.667 9.38267 142.531 9.02474 141.656C8.6668 140.779 17.4508 134.399 17.4508 134.399L27.724 143.849L39.3446 134.399L50.3827 144.667L61.4068 134.399L72.2558 144.693L83.6374 134.399L93.2015 144.086L89.9922 149.936Z" fill="#EB6307"/>
<path d="M27.9418 119.281L33.0683 125.689L27.0638 130.926C27.0638 130.926 25.8175 129.575 25.262 129.069C24.706 128.563 23.7422 125.103 23.7422 125.103L26.0533 120.294L27.9418 119.281Z" fill="#EB6307"/>
<path d="M49.8143 119.281L54.9403 125.689L48.9363 130.926C48.9363 130.926 47.69 129.575 47.134 129.069C46.5785 128.563 45.6143 125.103 45.6143 125.103L47.9258 120.294L49.8143 119.281Z" fill="#EB6307"/>
<path d="M71.6849 119.281L76.8114 125.689L70.8069 130.926C70.8069 130.926 69.5607 129.575 69.0051 129.069C68.4491 128.563 67.4854 125.103 67.4854 125.103L69.7964 120.294L71.6849 119.281Z" fill="#EB6307"/>
<path d="M94.0843 119.281L99.2108 125.689L93.2068 130.926C93.2068 130.926 91.9605 129.575 91.4045 129.069C90.849 128.563 89.8848 125.103 89.8848 125.103L92.1963 120.294L94.0843 119.281Z" fill="#EB6307"/>
<path d="M7.45933 118.781L12.5858 125.189L6.58133 130.426C6.58133 130.426 5.33507 129.075 4.77953 128.569C4.22354 128.063 3.25977 124.603 3.25977 124.603L5.57085 119.794L7.45933 118.781Z" fill="#EB6307"/>
<path d="M61.6315 77.1352V72.1937C61.6315 68.2633 58.6018 65.0304 54.7593 64.7123V61.6216C57.0717 60.1118 58.5183 57.4946 58.5183 54.6924C58.5183 50.1387 54.8213 46.4343 50.2768 46.4343C45.7328 46.4343 42.0353 50.1387 42.0353 54.6924C42.0353 57.4946 43.4823 60.1123 45.7943 61.6216V64.7127C41.9522 65.0304 38.9226 68.2637 38.9226 72.1941V77.1352C17.2057 82.2874 0.998047 101.876 0.998047 125.188C0.998047 152.416 23.1047 174.567 50.2768 174.567C77.4493 174.567 99.556 152.416 99.556 125.188C99.556 101.875 83.3483 82.2869 61.6315 77.1352ZM84.3004 133.557C83.6667 132.929 82.6464 132.929 82.0131 133.557L72.1962 143.286L62.3797 133.557C61.746 132.929 60.7261 132.929 60.0928 133.557L50.2763 143.286L40.4621 133.557C39.8284 132.93 38.8085 132.93 38.1753 133.557L28.3583 143.286L18.5418 133.557C17.9081 132.93 16.8878 132.93 16.255 133.557L7.50735 142.227C6.23683 139.037 5.31123 135.673 4.77905 132.182L5.38399 132.788C5.68893 133.093 6.10255 133.265 6.53369 133.265C6.96528 133.265 7.37891 133.093 7.68384 132.788L14.1177 126.341C14.7527 125.705 14.7527 124.673 14.1177 124.036L7.68384 117.59C7.04881 116.953 6.01902 116.953 5.38444 117.59L4.77905 118.196C5.31123 114.704 6.23683 111.341 7.50735 108.151L16.255 116.821C16.8887 117.449 17.9086 117.449 18.5418 116.821L28.3588 107.092L38.1753 116.821C38.8089 117.449 39.8293 117.449 40.4625 116.821L50.2768 107.092L60.0928 116.821C60.7265 117.45 61.7464 117.45 62.3797 116.821L72.1966 107.092L82.0131 116.821C82.3302 117.136 82.7434 117.293 83.1565 117.293C83.5702 117.293 83.9838 117.136 84.3004 116.821L93.0471 108.15C94.3172 111.34 95.2433 114.705 95.7759 118.197L95.1696 117.59C94.5346 116.953 93.5048 116.954 92.8702 117.59L86.4363 124.037C86.1314 124.342 85.9598 124.757 85.9598 125.189C85.9598 125.622 86.1314 126.035 86.4363 126.341L92.8702 132.788C93.1877 133.106 93.604 133.266 94.0199 133.266C94.4362 133.266 94.8525 133.106 95.17 132.788L95.7759 132.182C95.2437 135.674 94.3172 139.038 93.0467 142.229L84.3004 133.557ZM91.6347 145.413C91.0621 146.583 90.4423 147.725 89.7768 148.836L84.3004 143.407C83.6667 142.779 82.6464 142.779 82.0131 143.407L72.1962 153.136L62.3797 143.407C61.746 142.779 60.7261 142.779 60.0928 143.407L50.2763 153.136L40.4621 143.408C39.8284 142.779 38.8085 142.779 38.1753 143.408L28.3583 153.136L18.5418 143.408C17.9081 142.779 16.8882 142.779 16.255 143.408L10.7764 148.836C10.1108 147.724 9.49059 146.582 8.91843 145.412L17.3984 137.007L27.2149 146.737C27.8486 147.365 28.8685 147.365 29.5017 146.737L39.3182 137.007L49.1325 146.737C49.4491 147.051 49.8623 147.208 50.2759 147.208C50.6895 147.208 51.1027 147.051 51.4193 146.737L61.2363 137.007L71.0528 146.737C71.6864 147.365 72.7064 147.365 73.34 146.737L83.1561 137.007L91.6347 145.413ZM4.25045 125.188C4.25045 124.553 4.26662 123.921 4.29222 123.292L6.53369 121.046L10.6677 125.188L6.53369 129.331L4.29222 127.085C4.26662 126.456 4.25045 125.824 4.25045 125.188ZM8.91798 104.966C9.49014 103.796 10.1103 102.653 10.7759 101.541L16.255 106.971C16.5716 107.285 16.9852 107.442 17.3984 107.442C17.8116 107.442 18.2247 107.285 18.5418 106.971L28.3583 97.242L38.1753 106.971C38.8089 107.599 39.8289 107.599 40.4621 106.971L50.2763 97.242L60.0928 106.971C60.7265 107.6 61.7464 107.6 62.3797 106.971L72.1962 97.242L82.0131 106.971C82.6464 107.6 83.6667 107.599 84.3004 106.971L89.7777 101.541C90.4432 102.653 91.063 103.796 91.6356 104.966L83.1565 113.371L73.34 103.642C72.7064 103.013 71.6864 103.013 71.0532 103.642L61.2363 113.371L51.4198 103.642C50.7861 103.013 49.7657 103.013 49.1325 103.642L39.3187 113.371L29.5022 103.642C28.8685 103.013 27.8486 103.013 27.2153 103.642L17.3984 113.371L8.91798 104.966ZM96.3031 125.188C96.3031 125.823 96.287 126.455 96.2618 127.085L94.0194 129.331L89.885 125.188L94.0194 121.046L96.2618 123.292C96.287 123.921 96.3031 124.553 96.3031 125.188ZM45.2877 54.6924C45.2877 51.9361 47.526 49.6928 50.2768 49.6928C53.0276 49.6928 55.2659 51.9356 55.2659 54.6924C55.2659 56.6049 54.153 58.3752 52.4302 59.2033C51.8662 59.4742 51.5073 60.0457 51.5073 60.6721V64.6848H49.0463V60.6721C49.0463 60.0452 48.6874 59.4742 48.1233 59.2033C46.401 58.3752 45.2877 56.6049 45.2877 54.6924ZM42.1745 72.1937C42.1745 69.85 44.0774 67.9433 46.4163 67.9433H54.1377C56.4767 67.9433 58.3791 69.85 58.3791 72.1937V76.4809C55.7419 76.0417 53.0361 75.8099 50.2768 75.8099C47.5171 75.8099 44.8117 76.0421 42.1741 76.4809V72.1937H42.1745ZM50.2768 79.0684C65.8472 79.0684 79.6351 86.8576 87.9678 98.75L83.1561 103.52L73.34 93.7909C72.7059 93.1632 71.686 93.1632 71.0528 93.7909L61.2363 103.52L51.4193 93.7909C50.7856 93.1632 49.7657 93.1632 49.1325 93.7909L39.3182 103.52L29.5017 93.7909C28.8685 93.1627 27.8486 93.1627 27.2149 93.7909L17.3984 103.52L12.5854 98.7505C20.918 86.8581 34.7059 79.0684 50.2768 79.0684ZM50.2768 171.308C34.7064 171.308 20.9189 163.518 12.5863 151.627L17.3984 146.857L27.2149 156.587C27.8486 157.215 28.8685 157.215 29.5017 156.587L39.3182 146.858L49.1325 156.586C49.4491 156.901 49.8623 157.058 50.2759 157.058C50.6895 157.058 51.1027 156.901 51.4193 156.587L61.2363 146.858L71.0528 156.587C71.6864 157.215 72.7064 157.215 73.34 156.587L83.1561 146.858L87.9673 151.627C79.6338 163.519 65.8468 171.308 50.2768 171.308Z" fill="black"/>
<path d="M28.4045 129.332L24.2696 125.188L28.4045 121.045L32.5394 125.188L28.4045 129.332ZM29.5542 117.588C28.9187 116.952 27.8894 116.952 27.2543 117.588L20.82 124.036C20.185 124.672 20.185 125.704 20.82 126.34L27.2543 132.788C27.5593 133.093 27.9729 133.265 28.4045 133.265C28.8361 133.265 29.2492 133.093 29.5542 132.788L35.9889 126.34C36.2939 126.035 36.4659 125.62 36.4659 125.188C36.4659 124.756 36.2939 124.342 35.9889 124.036L29.5542 117.588Z" fill="black"/>
<path d="M51.4269 117.588C50.7919 116.952 49.7617 116.952 49.1266 117.588L42.6928 124.036C42.3878 124.341 42.2158 124.756 42.2158 125.188C42.2158 125.62 42.3878 126.035 42.6928 126.341L49.1266 132.789C49.4316 133.094 49.8456 133.265 50.2772 133.265C50.7084 133.265 51.122 133.094 51.4274 132.789L57.8617 126.341C58.4967 125.704 58.4967 124.673 57.8617 124.036L51.4269 117.588ZM50.2768 129.332L46.1419 125.188L50.2768 121.045L54.4117 125.188L50.2768 129.332Z" fill="black"/>
<path d="M73.2973 117.588C72.6623 116.952 71.6325 116.952 70.9975 117.588L64.5632 124.036C63.9282 124.672 63.9282 125.704 64.5632 126.34L70.9975 132.788C71.3024 133.093 71.7161 133.265 72.1476 133.265C72.5788 133.265 72.9924 133.093 73.2978 132.788L79.7321 126.34C80.037 126.035 80.2081 125.62 80.2081 125.188C80.2081 124.756 80.037 124.342 79.7321 124.036L73.2973 117.588ZM72.1476 129.332L68.0128 125.188L72.1476 121.045L76.2825 125.188L72.1476 129.332Z" fill="black"/>
</svg>
