<svg width="467" height="638" viewBox="0 0 467 638" fill="none" xmlns="http://www.w3.org/2000/svg">
<path d="M302.741 334.05L130.252 439.46L278.784 524.108L455 408.05L302.741 334.05Z" fill="url(#paint0_linear_60_1724)"/>
<path d="M278.518 192.705C278.518 192.705 356.032 236.033 359.971 239.554C366.227 245.144 373.946 251.799 374.478 269.367C375.011 286.935 375.942 402.46 373.547 407.518C371.151 412.575 367.691 418.165 358.907 415.77C350.122 413.374 266.007 362.532 266.007 362.266" stroke="url(#paint1_linear_60_1724)" stroke-width="3" stroke-linecap="round" stroke-dasharray="10 10"/>
<path d="M395.984 295.122C395.984 308.593 386.468 314.019 374.728 307.241C362.989 300.463 353.472 284.049 353.472 270.578C353.472 257.108 362.989 251.682 374.728 258.459C386.468 265.237 395.984 281.652 395.984 295.122Z" fill="white"/>
<g opacity="0.95">
<path opacity="0.95" d="M384.269 310.921C381.158 310.921 377.82 309.904 374.348 307.9C362.417 301.012 352.711 284.269 352.711 270.578C352.711 260.98 357.609 254.779 365.188 254.779C368.298 254.779 371.636 255.795 375.109 257.8C387.04 264.688 396.745 281.431 396.745 295.122C396.745 304.72 391.848 310.921 384.269 310.921ZM365.188 256.3C358.43 256.3 354.233 261.771 354.233 270.578C354.233 283.785 363.598 299.936 375.109 306.582C378.346 308.452 381.429 309.399 384.269 309.399C391.026 309.399 395.224 303.929 395.224 295.122C395.224 281.915 385.858 265.764 374.348 259.118C371.11 257.248 368.027 256.3 365.188 256.3Z" fill="url(#paint2_linear_60_1724)"/>
</g>
<path d="M387.09 285.214L379.912 281.07V272.833C379.912 272.107 379.399 271.223 378.767 270.858L372.229 267.084C371.597 266.718 371.084 267.011 371.084 267.737V275.973L363.906 271.829C363.274 271.464 362.761 271.756 362.761 272.482V279.983C362.761 280.709 363.274 281.593 363.906 281.959L371.084 286.103V294.339C371.084 295.065 371.597 295.949 372.229 296.315L378.767 300.089C379.399 300.454 379.912 300.162 379.912 299.436V291.2L387.09 295.344C387.722 295.709 388.235 295.417 388.235 294.69V287.19C388.235 286.464 387.722 285.579 387.09 285.214Z" fill="url(#paint3_linear_60_1724)"/>
<path d="M387.09 285.214L379.912 281.07V272.833C379.912 272.108 379.399 271.223 378.767 270.858L375.413 268.921V298.153L378.767 300.089C379.399 300.454 379.912 300.162 379.912 299.436V291.2L387.09 295.344C387.722 295.709 388.235 295.417 388.235 294.69V287.19C388.235 286.464 387.722 285.579 387.09 285.214Z" fill="url(#paint4_linear_60_1724)"/>
<path d="M142.763 97.4101C142.763 97.4101 56.5018 46.0882 53.0579 44.9713C48.1334 43.3741 40.8133 42.7087 37.8852 51.4928C34.7123 61.0122 36.2881 279.216 36.2881 279.216C36.2881 279.216 36.0219 295.187 53.3241 308.762C68.8635 320.955 145.159 361.734 145.159 361.734" stroke="url(#paint5_linear_60_1724)" stroke-width="3" stroke-linecap="round" stroke-dasharray="10 10"/>
<path d="M57.2735 133.994C57.2735 147.465 47.7568 152.89 36.0174 146.113C24.278 139.335 14.7618 122.92 14.7618 109.449C14.7618 95.9787 24.278 90.5533 36.0174 97.3309C47.7568 104.109 57.2735 120.523 57.2735 133.994Z" fill="white"/>
<path d="M45.5575 149.793C42.4463 149.793 39.1089 148.777 35.6367 146.772C23.7057 139.884 14 123.141 14 109.45C14 99.852 18.8978 93.6509 26.4767 93.6509C29.5879 93.6509 32.9253 94.6672 36.3975 96.6716C48.3285 103.56 58.0342 120.303 58.0342 133.994C58.0342 143.592 53.1369 149.793 45.5575 149.793ZM26.4767 95.1724C19.7193 95.1724 15.5215 100.643 15.5215 109.45C15.5215 122.657 24.887 138.809 36.3975 145.454C39.6348 147.323 42.7168 148.271 45.5575 148.271C52.3149 148.271 56.5127 142.801 56.5127 133.994C56.5127 120.786 47.1472 104.635 35.6367 97.9897C32.3994 96.1206 29.3175 95.1724 26.4767 95.1724Z" fill="url(#paint6_linear_60_1724)"/>
<path d="M47.8089 127.437L32.8215 106.669C31.4714 104.799 29.6113 104.832 29.6113 106.727V130.957C29.6113 132.852 31.4714 135.034 32.8215 134.722L47.8089 131.26C48.961 130.994 48.961 129.034 47.8089 127.437Z" fill="url(#paint7_linear_60_1724)"/>
<path d="M47.8089 127.438L37.0321 112.503V133.75L47.8089 131.26C48.9604 130.994 48.9604 129.034 47.8089 127.438Z" fill="url(#paint8_linear_60_1724)"/>
<path d="M272.952 513.2L151.962 443.346C138.314 435.466 127.25 414.327 127.25 396.13V73.9149C127.25 64.6602 119.643 62.6153 124.251 59.2906C124.426 59.1645 142.715 50.9638 142.915 50.8871C147.875 48.9871 153.181 48.1406 159.624 51.8608L280.615 121.715C294.263 129.595 305.327 150.734 305.327 168.931V491.145C305.327 500.814 302.203 507.707 297.228 510.862C296.934 511.049 276.469 520.509 276.14 520.619C271.73 522.089 278.919 516.645 272.952 513.2Z" fill="#AFB6E5"/>
<path d="M272.952 513.2L151.962 443.346C138.314 435.466 127.25 414.327 127.25 396.13V73.9151C127.25 64.6603 119.643 62.6154 124.251 59.2908C124.426 59.1646 142.416 51.0746 142.616 50.998C147.576 49.0979 152.883 48.2515 159.326 51.9717L280.317 121.825C293.965 129.705 305.029 150.845 305.029 169.042V491.256C305.029 500.925 301.905 507.818 296.93 510.973C296.635 511.16 276.469 520.509 276.14 520.619C271.73 522.089 278.919 516.645 272.952 513.2Z" fill="url(#paint9_linear_60_1724)"/>
<path d="M272.952 513.2L151.962 443.345C138.314 435.466 127.25 414.327 127.25 396.13V73.9149C127.25 64.6601 119.643 62.6153 124.251 59.2906C124.426 59.1645 142.118 51.1852 142.318 51.1086C147.278 49.2085 152.585 48.3615 159.028 52.0817L280.019 121.936C293.667 129.816 304.731 150.955 304.731 169.152V491.367C304.731 501.036 301.607 507.928 296.632 511.083C296.337 511.27 276.469 520.509 276.14 520.619C271.73 522.089 278.919 516.645 272.952 513.2Z" fill="url(#paint10_linear_60_1724)"/>
<path d="M272.952 513.2L151.962 443.345C138.314 435.466 127.25 414.327 127.25 396.13V73.9148C127.25 64.66 119.643 62.6152 124.251 59.2905C124.426 59.1644 141.82 51.2953 142.02 51.2187C146.98 49.3186 152.286 48.4722 158.73 52.1924L279.72 122.047C293.368 129.926 304.432 151.065 304.432 169.262V491.477C304.432 501.146 301.309 508.039 296.333 511.194C296.039 511.381 276.469 520.509 276.14 520.619C271.73 522.089 278.919 516.645 272.952 513.2Z" fill="url(#paint11_linear_60_1724)"/>
<path d="M272.952 513.2L151.962 443.346C138.314 435.466 127.25 414.327 127.25 396.13V73.9149C127.25 64.6602 119.643 62.6153 124.251 59.2906C124.426 59.1645 141.522 51.4062 141.722 51.3295C146.682 49.4295 151.988 48.583 158.431 52.3032L279.422 122.157C293.07 130.037 304.134 151.176 304.134 169.373V491.588C304.134 501.257 301.01 508.15 296.035 511.305C295.741 511.491 276.469 520.509 276.14 520.619C271.73 522.089 278.919 516.645 272.952 513.2Z" fill="url(#paint12_linear_60_1724)"/>
<path d="M272.952 513.2L151.962 443.345C138.314 435.466 127.25 414.327 127.25 396.13V73.9148C127.25 64.66 119.643 62.6152 124.251 59.2905C124.426 59.1643 141.224 51.5168 141.424 51.4401C146.384 49.5401 151.69 48.6931 158.133 52.4133L279.124 122.268C292.772 130.147 303.836 151.287 303.836 169.484V491.698C303.836 501.367 300.712 508.26 295.737 511.415C295.443 511.602 276.469 520.509 276.14 520.619C271.73 522.089 278.919 516.645 272.952 513.2Z" fill="url(#paint13_linear_60_1724)"/>
<path d="M272.952 513.2L151.962 443.345C138.314 435.466 127.25 414.327 127.25 396.13V73.9149C127.25 64.6601 119.643 62.6153 124.251 59.2906C124.426 59.1644 140.925 51.6276 141.125 51.551C146.085 49.6509 151.392 48.8039 157.835 52.5241L278.826 122.378C292.474 130.258 303.538 151.397 303.538 169.594V491.809C303.538 501.478 300.414 508.371 295.439 511.525C295.144 511.712 276.469 520.509 276.14 520.619C271.73 522.089 278.919 516.645 272.952 513.2Z" fill="url(#paint14_linear_60_1724)"/>
<path d="M272.952 513.2L151.962 443.346C138.314 435.466 127.25 414.327 127.25 396.13V73.9153C127.25 64.6605 119.643 62.6157 124.251 59.291C124.426 59.1648 140.627 51.7382 140.827 51.6615C145.787 49.7615 151.093 48.915 157.537 52.6352L278.528 122.489C292.176 130.369 303.239 151.508 303.239 169.705V491.92C303.239 501.589 300.115 508.482 295.14 511.637C294.846 511.823 276.469 520.51 276.14 520.619C271.73 522.089 278.919 516.645 272.952 513.2Z" fill="url(#paint15_linear_60_1724)"/>
<path d="M272.952 513.2L151.962 443.345C138.314 435.466 127.25 414.327 127.25 396.13V73.9147C127.25 64.6599 119.643 62.6151 124.251 59.2904C124.426 59.1642 140.329 51.8483 140.529 51.7717C145.489 49.8716 150.795 49.0246 157.239 52.7448L278.229 122.599C291.877 130.479 302.941 151.618 302.941 169.815V492.03C302.941 501.699 299.817 508.591 294.842 511.746C294.548 511.933 276.469 520.509 276.14 520.619C271.73 522.089 278.919 516.645 272.952 513.2Z" fill="url(#paint16_linear_60_1724)"/>
<path d="M272.952 513.2L151.962 443.345C138.314 435.466 127.25 414.327 127.25 396.13V73.9148C127.25 64.66 119.643 62.6152 124.251 59.2905C124.426 59.1643 140.031 51.9592 140.231 51.8825C145.19 49.9825 150.497 49.1355 156.94 52.8557L277.931 122.71C291.579 130.59 302.643 151.729 302.643 169.926V492.141C302.643 501.81 299.519 508.702 294.544 511.857C294.25 512.044 276.469 520.509 276.14 520.619C271.73 522.089 278.919 516.645 272.952 513.2Z" fill="url(#paint17_linear_60_1724)"/>
<path d="M272.952 513.2L151.962 443.346C138.314 435.466 127.25 414.327 127.25 396.13V73.9152C127.25 64.6604 119.643 62.6155 124.251 59.2909C124.426 59.1647 139.733 52.0698 139.933 51.9931C144.892 50.093 150.199 49.2466 156.642 52.9668L277.633 122.821C291.281 130.7 302.345 151.84 302.345 170.037V492.251C302.345 501.92 299.221 508.813 294.246 511.968C293.952 512.155 276.469 520.51 276.14 520.619C271.73 522.089 278.919 516.645 272.952 513.2Z" fill="url(#paint18_linear_60_1724)"/>
<path d="M272.952 513.2L151.962 443.346C138.314 435.466 127.25 414.327 127.25 396.13V73.915C127.25 64.6603 119.643 62.6154 124.251 59.2907C124.426 59.1646 139.434 52.1804 139.634 52.1037C144.594 50.2037 149.9 49.3566 156.344 53.0769L277.335 122.931C290.983 130.811 302.046 151.95 302.046 170.147V492.362C302.046 502.031 298.922 508.924 293.947 512.079C293.653 512.266 276.469 520.509 276.14 520.619C271.73 522.089 278.919 516.645 272.952 513.2Z" fill="url(#paint19_linear_60_1724)"/>
<path d="M272.952 513.2L151.962 443.345C138.314 435.466 127.25 414.327 127.25 396.13V73.9147C127.25 64.6599 119.643 62.615 124.251 59.2904C124.426 59.1642 139.136 52.2907 139.336 52.2141C144.296 50.314 149.602 49.467 156.046 53.1872L277.037 123.042C290.684 130.921 301.748 152.06 301.748 170.257V492.472C301.748 502.141 298.624 509.034 293.649 512.189C293.355 512.375 276.469 520.509 276.14 520.619C271.73 522.089 278.919 516.645 272.952 513.2Z" fill="url(#paint20_linear_60_1724)"/>
<path d="M272.952 513.199L151.962 443.345C138.314 435.465 127.25 414.327 127.25 396.129V73.9146C127.25 64.6598 119.643 62.6149 124.251 59.2902C124.426 59.1641 138.838 52.4008 139.038 52.3241C143.997 50.4241 149.304 49.5776 155.747 53.2978L276.738 123.152C290.386 131.031 301.45 152.171 301.45 170.368V492.582C301.45 502.251 298.326 509.144 293.351 512.299C293.057 512.486 276.469 520.509 276.14 520.619C271.73 522.089 278.919 516.644 272.952 513.199Z" fill="url(#paint21_linear_60_1724)"/>
<path d="M272.952 513.2L151.962 443.346C138.314 435.466 127.25 414.327 127.25 396.13V73.9149C127.25 64.6601 119.643 62.6153 124.251 59.2906C124.426 59.1645 138.54 52.5119 138.74 52.4352C143.699 50.5352 149.005 49.6882 155.449 53.4084L276.44 123.263C290.088 131.142 301.151 152.282 301.151 170.479V492.693C301.151 502.362 298.028 509.256 293.053 512.41C292.759 512.597 276.469 520.509 276.14 520.619C271.73 522.089 278.919 516.645 272.952 513.2Z" fill="url(#paint22_linear_60_1724)"/>
<path d="M272.952 513.2L151.962 443.346C138.314 435.466 127.25 414.327 127.25 396.13V73.915C127.25 64.6602 119.643 62.6154 124.251 59.2907C124.426 59.1646 138.241 52.6228 138.442 52.5461C143.401 50.646 148.707 49.799 155.151 53.5193L276.142 123.374C289.79 131.253 300.853 152.392 300.853 170.589V492.804C300.853 502.473 297.73 509.366 292.755 512.521C292.46 512.707 276.469 520.509 276.14 520.619C271.73 522.089 278.919 516.645 272.952 513.2Z" fill="url(#paint23_linear_60_1724)"/>
<path d="M272.952 513.2L151.962 443.346C138.314 435.466 127.25 414.327 127.25 396.13V73.9149C127.25 64.6601 119.643 62.6153 124.251 59.2906C124.426 59.1644 137.943 52.7328 138.143 52.6562C143.103 50.7561 148.409 49.9097 154.853 53.6299L275.843 123.484C289.491 131.363 300.555 152.503 300.555 170.7V492.914C300.555 502.583 297.431 509.476 292.456 512.631C292.162 512.818 276.469 520.509 276.14 520.619C271.73 522.089 278.919 516.645 272.952 513.2Z" fill="url(#paint24_linear_60_1724)"/>
<path d="M272.952 513.2L151.962 443.346C138.314 435.466 127.25 414.327 127.25 396.13V73.9153C127.25 64.6605 119.643 62.6157 124.251 59.291C124.426 59.1648 137.645 52.8439 137.845 52.7673C142.804 50.8672 148.111 50.0202 154.554 53.7405L275.545 123.595C289.193 131.474 300.257 152.614 300.257 170.811V493.025C300.257 502.694 297.133 509.588 292.158 512.742C291.863 512.929 276.469 520.51 276.14 520.619C271.73 522.089 278.919 516.645 272.952 513.2Z" fill="url(#paint25_linear_60_1724)"/>
<path d="M272.952 513.2L151.962 443.345C138.314 435.466 127.25 414.327 127.25 396.13V73.9149C127.25 64.6601 119.643 62.6153 124.251 59.2906C124.426 59.1644 137.346 52.9543 137.547 52.8776C142.506 50.9776 147.813 50.1306 154.256 53.8508L275.247 123.705C288.895 131.585 299.958 152.724 299.958 170.921V493.136C299.958 502.805 296.835 509.697 291.86 512.852C291.565 513.039 276.469 520.509 276.14 520.619C271.73 522.089 278.919 516.645 272.952 513.2Z" fill="url(#paint26_linear_60_1724)"/>
<path d="M272.952 513.2L151.962 443.345C138.314 435.466 127.25 414.327 127.25 396.13V73.9148C127.25 64.66 119.643 62.6152 124.251 59.2905C124.426 59.1643 137.048 53.0644 137.249 52.9877C142.208 51.0877 147.515 50.2412 153.958 53.9614L274.949 123.815C288.596 131.695 299.66 152.834 299.66 171.031V493.246C299.66 502.915 296.537 509.808 291.562 512.963C291.267 513.15 276.469 520.509 276.14 520.619C271.73 522.089 278.919 516.645 272.952 513.2Z" fill="url(#paint27_linear_60_1724)"/>
<path d="M272.952 513.2L151.962 443.345C138.314 435.466 127.25 414.327 127.25 396.13V73.9147C127.25 64.6599 119.643 62.615 124.251 59.2904C124.426 59.1642 136.75 53.175 136.95 53.0983C141.91 51.1983 147.216 50.3513 153.659 54.0715L274.65 123.926C288.298 131.806 299.362 152.945 299.362 171.142V493.356C299.362 503.025 296.239 509.919 291.264 513.073C290.969 513.26 276.469 520.509 276.14 520.619C271.73 522.089 278.919 516.645 272.952 513.2Z" fill="url(#paint28_linear_60_1724)"/>
<path d="M272.952 513.2L151.962 443.346C138.314 435.466 127.25 414.327 127.25 396.13V73.9153C127.25 64.6605 119.643 62.6156 124.251 59.291C124.426 59.1648 136.452 53.2863 136.652 53.2097C141.611 51.3096 146.918 50.4626 153.361 54.1828L274.352 124.037C288 131.917 299.064 153.056 299.064 171.253V493.468C299.064 503.137 295.94 510.029 290.965 513.184C290.67 513.371 276.469 520.51 276.14 520.619C271.73 522.089 278.919 516.645 272.952 513.2Z" fill="url(#paint29_linear_60_1724)"/>
<path d="M261.402 518.66L140.411 448.806C126.763 440.926 115.699 419.787 115.699 401.59V79.3755C115.699 61.1785 126.763 52.8143 140.411 60.694L261.402 130.548C275.05 138.427 286.113 159.567 286.113 177.764V499.979C286.113 518.176 275.05 526.54 261.402 518.66Z" fill="white"/>
<path d="M271.212 519.178C268.547 519.178 265.658 518.291 262.627 516.539L141.634 446.685C128.683 439.209 118.147 418.98 118.147 401.591V79.3752C118.147 67.713 123.035 60.1768 130.6 60.1768C133.268 60.1768 136.155 61.0631 139.186 62.8131L260.179 132.669C273.129 140.146 283.666 160.374 283.666 177.764V499.979C283.666 511.641 278.777 519.178 271.212 519.178Z" fill="url(#paint30_linear_60_1724)"/>
<path d="M123.883 405.696V84.7189C123.883 71.3665 132.001 65.2298 142.015 71.0114L259.797 139.013C269.812 144.794 277.929 160.305 277.929 173.658V494.635C277.929 507.987 269.812 514.125 259.797 508.343L142.015 440.342C132.001 434.56 123.883 419.049 123.883 405.696Z" fill="#AFB6E5"/>
<path d="M143.379 74.5605C133.941 69.1112 126.29 73.4734 126.29 84.304V408.89C126.29 419.721 133.941 432.918 143.379 438.367L258.433 504.794C267.872 510.243 275.522 505.881 275.522 495.05V170.463C275.522 159.633 267.872 146.436 258.433 140.987L143.379 74.5605Z" fill="url(#paint31_linear_60_1724)"/>
<path d="M245.168 152.06L261.133 161.277C261.741 161.627 262.234 161.347 262.234 160.649C262.234 159.951 261.741 159.101 261.133 158.75L245.168 149.532C244.56 149.182 244.067 149.463 244.067 150.161C244.067 150.859 244.56 151.709 245.168 152.06Z" fill="white"/>
<path d="M261.133 164.436L245.168 155.219C244.56 154.867 244.067 155.149 244.067 155.846C244.067 156.544 244.56 157.394 245.168 157.745L261.133 166.963C261.741 167.314 262.234 167.033 262.234 166.335C262.234 165.637 261.741 164.787 261.133 164.436Z" fill="white"/>
<path d="M261.133 170.121L245.168 160.904C244.56 160.552 244.067 160.834 244.067 161.531C244.067 162.229 244.56 163.08 245.168 163.43L261.133 172.648C261.741 172.999 262.234 172.718 262.234 172.02C262.234 171.323 261.741 170.473 261.133 170.121Z" fill="white"/>
<path d="M160.16 105.742C160.16 107.426 158.97 108.105 157.502 107.258C156.033 106.41 154.843 104.357 154.843 102.672C154.843 100.987 156.033 100.309 157.502 101.157C158.97 102.004 160.16 104.057 160.16 105.742Z" fill="white"/>
<path d="M152.141 101.082C152.141 102.766 150.951 103.445 149.483 102.597C148.015 101.75 146.824 99.6969 146.824 98.0125C146.824 96.3281 148.015 95.6493 149.483 96.4968C150.951 97.3444 152.141 99.3972 152.141 101.082Z" fill="white"/>
<path d="M144.122 96.4225C144.122 98.1074 142.932 98.7857 141.464 97.9382C139.996 97.0906 138.806 95.0373 138.806 93.3528C138.806 91.6684 139.996 90.9896 141.464 91.8372C142.932 92.6847 144.122 94.7381 144.122 96.4225Z" fill="white"/>
<path d="M252.308 441.925C249.423 441.923 246.33 440.981 243.113 439.124L153.692 387.659C142.653 381.284 133.673 365.793 133.673 353.126V150.055C133.673 141.153 138.219 135.401 145.258 135.401C148.141 135.401 151.235 136.342 154.452 138.2L243.872 189.666C254.912 196.04 263.892 211.531 263.892 224.199V427.27C263.892 431.701 262.796 435.409 260.72 437.996C258.659 440.565 255.75 441.925 252.308 441.925ZM145.258 136.922C139.05 136.922 135.194 141.954 135.194 150.055V353.126C135.194 365.308 143.832 380.21 154.452 386.342L243.872 437.806C246.814 439.504 249.731 440.402 252.308 440.403C255.273 440.403 257.77 439.241 259.534 437.044C261.39 434.731 262.37 431.352 262.37 427.27V224.199C262.37 212.016 253.732 197.116 243.113 190.984L153.692 139.518C150.709 137.796 147.871 136.922 145.258 136.922Z" fill="url(#paint32_linear_60_1724)"/>
<path d="M79.9428 72.6547C70.6262 74.518 61.5759 83.0359 59.1802 101.935C56.34 124.343 52.2593 149.05 52.7917 161.827C59.4464 165.82 82.8708 170.878 82.8708 170.878L91.1226 116.575L182.691 159.698L188.015 122.964C188.015 122.964 100.489 68.5453 79.9428 72.6547Z" fill="url(#paint33_radial_60_1724)"/>
<g opacity="0.9">
<path opacity="0.9" d="M224.08 187.101C224.08 173.466 214.447 156.85 202.564 149.989L93.7435 87.4916C81.8604 80.6309 72.2271 86.1234 72.2271 99.759V266.376L224.08 353.642V187.101Z" fill="white"/>
</g>
<g opacity="0.9">
<path opacity="0.9" d="M93.7435 372.62L202.564 435.117C214.447 441.978 224.08 436.486 224.08 422.85V353.642L72.2271 266.376V335.507C72.2271 349.143 81.8604 365.759 93.7435 372.62Z" fill="url(#paint34_linear_60_1724)"/>
</g>
<g opacity="0.9">
<path opacity="0.9" d="M93.7435 372.62L202.564 435.117C214.447 441.978 224.08 436.486 224.08 422.85V353.642L72.2271 266.376V335.507C72.2271 349.143 81.8604 365.759 93.7435 372.62Z" fill="url(#paint35_linear_60_1724)"/>
</g>
<g opacity="0.3">
<path d="M184.129 400.206L122.515 364.367C115.875 360.534 110.444 350.155 110.444 341.303V328.237C110.444 319.385 115.875 315.278 122.515 319.111L184.129 354.951C190.769 358.784 196.201 369.162 196.201 378.015V391.081C196.201 399.933 190.769 404.039 184.129 400.206Z" fill="#5F4CE4"/>
<path d="M184.129 354.95L152.513 336.56V381.815L184.129 400.206C190.769 404.039 196.201 399.933 196.201 391.08V378.014C196.201 369.162 190.769 358.783 184.129 354.95Z" fill="#5E4EE5"/>
</g>
<path d="M179.338 402.069L117.723 366.23C111.084 362.397 105.652 352.018 105.652 343.166V330.1C105.652 321.248 111.084 317.141 117.723 320.975L179.338 356.814C185.977 360.647 191.41 371.026 191.41 379.878V392.944C191.41 401.796 185.977 405.902 179.338 402.069Z" fill="url(#paint36_linear_60_1724)"/>
<path d="M179.339 356.814L117.723 320.975C111.084 317.142 105.652 321.248 105.652 330.1V331.455C105.652 322.603 111.084 318.497 117.723 322.33L179.339 358.169C185.978 362.003 191.409 372.381 191.409 381.233V379.878C191.409 371.026 185.978 360.647 179.339 356.814Z" fill="url(#paint37_radial_60_1724)"/>
<path d="M179.338 356.814L147.721 338.423V383.678L179.338 402.069C185.977 405.902 191.41 401.796 191.41 392.944V379.878C191.41 371.025 185.977 360.647 179.338 356.814Z" fill="url(#paint38_linear_60_1724)"/>
<path d="M148.353 367.324C148.353 367.324 146.356 411.777 149.95 419.896C154.475 427.615 159.526 430.164 167.784 434.669C176.569 439.46 240.986 477.525 244.18 478.59C247.374 479.655 256.425 481.119 256.158 471.27C255.892 461.421 256.292 418.432 256.292 418.432" stroke="white" stroke-width="3" stroke-linecap="round" stroke-dasharray="10 10"/>
<g opacity="0.95">
<path d="M255.498 410.779L250.109 416.446C249.624 416.956 250.117 418.331 250.959 418.817L261.738 425.04C262.58 425.527 263.073 424.721 262.588 423.65L257.199 411.76C256.785 410.846 255.913 410.343 255.498 410.779Z" fill="white"/>
<g opacity="0.95">
<path opacity="0.95" d="M153.612 366.305C153.612 369.898 151.074 371.344 147.943 369.537C144.813 367.73 142.275 363.353 142.275 359.76C142.275 356.168 144.813 354.721 147.943 356.528C151.074 358.336 153.612 362.713 153.612 366.305Z" fill="white"/>
</g>
</g>
<path d="M147.525 289.774C113.557 270.162 85.9213 222.496 85.9213 183.518C85.9213 144.54 113.557 128.785 147.525 148.397C181.493 168.008 209.127 215.672 209.127 254.65C209.127 293.629 181.493 309.385 147.525 289.774ZM147.525 152.684C115.617 134.262 89.6575 149.061 89.6575 185.675C89.6575 222.289 115.617 267.064 147.525 285.487C179.433 303.909 205.391 289.108 205.391 252.494C205.391 215.88 179.433 171.106 147.525 152.684Z" fill="#CED3F4"/>
<path d="M147.525 289.774C113.557 270.162 85.9213 222.496 85.9213 183.518C85.9213 169.149 89.6575 157.475 96.7248 149.758C97.3109 149.121 98.4726 149.543 99.3228 150.705C100.173 151.868 100.388 153.326 99.804 153.964C93.1659 161.211 89.6575 172.177 89.6575 185.675C89.6575 222.289 115.617 267.064 147.525 285.486C148.556 286.082 149.393 287.525 149.393 288.709C149.393 289.892 148.556 290.369 147.525 289.774Z" fill="url(#paint39_linear_60_1724)"/>
<path d="M147.525 279.981C118.262 263.086 94.4553 222.023 94.4553 188.445C94.4553 154.866 118.262 141.292 147.525 158.187C176.786 175.082 200.593 216.144 200.593 249.723C200.593 283.301 176.786 296.875 147.525 279.981ZM147.525 162.474C120.322 146.769 98.1915 159.387 98.1915 190.602C98.1915 221.817 120.322 259.988 147.525 275.694C174.727 291.399 196.857 278.781 196.857 247.566C196.857 216.352 174.727 178.18 147.525 162.474Z" fill="#CED3F4"/>
<path d="M147.525 279.981C118.262 263.086 94.4553 222.023 94.4553 188.445C94.4553 154.866 118.262 141.292 147.525 158.187C148.556 158.782 149.393 160.226 149.393 161.41C149.393 162.593 148.556 163.07 147.525 162.474C120.322 146.769 98.1915 159.387 98.1915 190.602C98.1915 221.817 120.322 259.988 147.525 275.694C148.556 276.289 149.393 277.732 149.393 278.916C149.393 280.099 148.556 280.577 147.525 279.981Z" fill="url(#paint40_linear_60_1724)"/>
<path d="M147.525 270.189C122.968 256.01 102.988 221.55 102.988 193.371C102.988 165.192 122.968 153.802 147.525 167.98C172.082 182.159 192.06 216.618 192.06 244.797C192.06 272.976 172.082 284.367 147.525 270.189ZM147.525 172.268C125.028 159.279 106.724 169.713 106.724 195.528C106.724 221.343 125.028 252.913 147.525 265.901C170.022 278.89 188.324 268.455 188.324 242.64C188.324 216.825 170.022 185.256 147.525 172.268Z" fill="#CED3F4"/>
<path d="M147.525 270.189C122.968 256.01 102.988 221.55 102.988 193.371C102.988 165.192 122.968 153.802 147.525 167.98C160.977 175.747 173.569 189.89 182.074 206.783C182.726 208.078 182.606 209.357 181.806 209.643C181.004 209.927 179.829 209.113 179.177 207.818C171.385 192.34 159.848 179.383 147.525 172.268C125.028 159.279 106.724 169.713 106.724 195.528C106.724 221.343 125.028 252.913 147.525 265.901C148.556 266.497 149.393 267.94 149.393 269.123C149.393 270.307 148.556 270.784 147.525 270.189Z" fill="url(#paint41_linear_60_1724)"/>
<path d="M168.412 234.973C168.573 233.863 168.683 232.704 168.683 231.449C168.683 230.194 168.573 228.908 168.412 227.612L173.559 226.961C174.298 226.867 174.663 226.048 174.399 224.948C173.922 222.965 173.324 220.975 172.616 218.996C172.219 217.885 171.326 216.939 170.485 216.684L164.619 214.911C163.347 212.184 161.818 209.547 160.082 207.084L161.488 201.164C161.689 200.315 161.314 199.075 160.545 198.175C159.177 196.573 157.743 195.06 156.255 193.653C155.43 192.873 154.532 192.775 154.079 193.361L150.922 197.444C149.873 196.654 148.808 195.913 147.714 195.282C146.621 194.65 145.555 194.161 144.506 193.74L141.349 186.011C140.896 184.902 139.998 183.963 139.173 183.79C137.685 183.478 136.251 183.337 134.883 183.359C134.114 183.371 133.739 184.178 133.94 185.26L135.346 192.803C133.61 193.26 132.081 194.133 130.809 195.39L124.943 190.39C124.102 189.673 123.209 189.588 122.811 190.241C122.104 191.403 121.505 192.702 121.028 194.134C120.764 194.929 121.13 196.171 121.869 197.117L127.016 203.712C126.855 204.822 126.746 205.982 126.746 207.237C126.746 208.491 126.855 209.777 127.016 211.073L121.869 211.725C121.13 211.818 120.764 212.638 121.028 213.737C121.505 215.72 122.104 217.711 122.811 219.689C123.209 220.8 124.101 221.746 124.942 222L130.809 223.774C132.081 226.501 133.61 229.139 135.346 231.601L133.94 237.521C133.739 238.37 134.114 239.61 134.883 240.51C136.251 242.112 137.685 243.627 139.173 245.033C139.998 245.812 140.896 245.91 141.349 245.325L144.506 241.241C145.555 242.032 146.621 242.772 147.714 243.403C148.808 244.035 149.873 244.525 150.922 244.945L154.079 252.675C154.532 253.784 155.43 254.723 156.255 254.896C157.743 255.208 159.177 255.348 160.545 255.327C161.314 255.314 161.689 254.507 161.488 253.425L160.082 245.883C161.818 245.424 163.347 244.553 164.62 243.295L170.485 248.295C171.326 249.012 172.219 249.096 172.616 248.444C173.324 247.282 173.922 245.983 174.399 244.551C174.663 243.757 174.298 242.514 173.559 241.568L168.412 234.973ZM147.714 229.006C143.063 226.321 139.292 219.818 139.292 214.481C139.292 209.144 143.063 206.993 147.714 209.679C152.365 212.364 156.136 218.868 156.136 224.205C156.136 229.542 152.365 231.692 147.714 229.006Z" fill="#CED3F4"/>
<path d="M170.346 227.367L173.559 226.961C174.114 226.89 174.458 226.41 174.483 225.708L170.232 226.246C170.28 226.622 170.309 226.994 170.346 227.367Z" fill="#AFB6E5"/>
<path d="M152.742 196.079L155.106 193.021C154.691 192.945 154.32 193.048 154.079 193.36L152.251 195.725C152.414 195.845 152.58 195.956 152.742 196.079Z" fill="#AFB6E5"/>
<path d="M161.902 244.517L162.018 245.134C162.881 244.705 163.677 244.158 164.395 243.489C163.622 243.936 162.79 244.282 161.902 244.517Z" fill="#AFB6E5"/>
<path d="M135.231 192.185C135.846 191.879 136.485 191.617 137.167 191.438L135.761 183.895C135.728 183.715 135.733 183.557 135.731 183.396C135.449 183.386 135.159 183.355 134.883 183.359C134.114 183.371 133.739 184.179 133.94 185.26L135.231 192.185Z" fill="#AFB6E5"/>
<path d="M140.993 243.668C139.505 242.261 138.072 240.747 136.703 239.145C135.935 238.245 135.56 237.004 135.761 236.155L137.167 230.236C135.431 227.773 133.901 225.136 132.629 222.409L126.763 220.635C125.922 220.381 125.029 219.435 124.632 218.324C123.924 216.346 123.326 214.355 122.849 212.372C122.783 212.098 122.757 211.843 122.765 211.611L121.869 211.725C121.13 211.818 120.764 212.638 121.028 213.737C121.505 215.72 122.104 217.711 122.811 219.689C123.209 220.8 124.101 221.746 124.942 222.001L130.808 223.774C132.081 226.501 133.61 229.139 135.346 231.601L133.94 237.521C133.739 238.37 134.114 239.61 134.883 240.51C136.251 242.112 137.685 243.627 139.173 245.033C139.998 245.813 140.896 245.911 141.349 245.325L142.142 244.299C141.777 244.233 141.379 244.032 140.993 243.668Z" fill="#AFB6E5"/>
<path d="M158.076 253.53C157.251 253.357 156.353 252.418 155.9 251.309L152.742 243.58C151.693 243.16 150.629 242.67 149.535 242.038C148.441 241.407 147.375 240.667 146.327 239.876L144.998 241.595C145.888 242.249 146.789 242.87 147.713 243.403C148.807 244.035 149.873 244.525 150.921 244.945L154.079 252.675C154.532 253.784 155.43 254.723 156.255 254.896C157.743 255.208 159.177 255.348 160.545 255.327C161.186 255.316 161.531 254.738 161.518 253.924C160.405 253.889 159.264 253.779 158.076 253.53Z" fill="#AFB6E5"/>
<path d="M172.306 246.929L166.44 241.929C165.892 242.471 165.289 242.925 164.65 243.321L170.486 248.295C171.327 249.012 172.22 249.096 172.617 248.444C172.815 248.119 172.983 247.758 173.164 247.411C172.885 247.318 172.596 247.176 172.306 246.929Z" fill="#AFB6E5"/>
<path d="M127.016 203.712C126.855 204.822 126.745 205.982 126.745 207.237C126.745 208.128 126.813 209.038 126.903 209.953L128.837 209.708C128.676 208.411 128.566 207.125 128.566 205.871C128.566 204.616 128.676 203.457 128.837 202.347L123.689 195.752C122.951 194.806 122.584 193.563 122.849 192.769C123.192 191.738 123.62 190.8 124.085 189.908C123.552 189.732 123.072 189.813 122.811 190.241C122.104 191.403 121.505 192.702 121.028 194.134C120.764 194.929 121.13 196.171 121.869 197.117L127.016 203.712Z" fill="#AFB6E5"/>
<path d="M132.854 193.83C132.765 193.881 132.685 193.945 132.598 193.999L132.629 194.025C132.7 193.954 132.781 193.898 132.854 193.83Z" fill="#AFB6E5"/>
<path d="M255.626 221.187C255.626 221.187 244.446 255.259 256.158 265.906C267.871 276.554 298.216 288.266 304.072 292.525C309.928 296.784 293.957 358.539 292.892 352.683C292.511 350.588 345.014 387.971 345.597 373.978C346.13 361.201 346.13 290.396 343.468 271.23C340.806 252.065 255.626 221.187 255.626 221.187Z" fill="url(#paint42_radial_60_1724)"/>
<g opacity="0.95">
<path opacity="0.95" d="M332.031 296.867C332.031 283.232 322.397 266.616 310.515 259.755L212.543 203.367C200.66 196.506 191.027 201.998 191.027 215.634V244.659L332.031 325.815V296.867Z" fill="url(#paint43_linear_60_1724)"/>
</g>
<g opacity="0.9">
<path opacity="0.9" d="M212.543 379.144L310.515 435.532C322.397 442.393 332.031 436.9 332.031 423.265V325.815L191.027 244.659V342.031C191.027 355.667 200.66 372.283 212.543 379.144Z" fill="white"/>
</g>
<path d="M310.515 259.755L212.543 203.367C200.66 196.506 191.027 201.998 191.027 215.634V217.715C191.027 204.079 200.66 198.587 212.543 205.448L310.515 261.836C322.398 268.697 332.031 285.313 332.031 298.948V296.867C332.031 283.232 322.398 266.616 310.515 259.755Z" fill="url(#paint44_linear_60_1724)"/>
<g opacity="0.95">
<path opacity="0.95" d="M249.718 278.571C249.718 292.042 240.202 297.468 228.462 290.69C216.723 283.912 207.206 267.498 207.206 254.026C207.206 240.556 216.723 235.13 228.462 241.907C240.202 248.685 249.718 265.1 249.718 278.571Z" fill="url(#paint45_linear_60_1724)"/>
</g>
<g opacity="0.95">
<path opacity="0.95" d="M228.462 241.908C240.202 248.685 249.718 265.101 249.718 278.571C249.718 292.042 240.202 297.468 228.462 290.69V241.908Z" fill="url(#paint46_linear_60_1724)"/>
</g>
<path d="M238.04 286.178C237.698 286.178 237.353 286.078 237.016 285.882L219.174 275.581C218.222 275.034 217.503 273.792 217.503 272.696V268.85C217.503 266.072 219.472 264.404 221.919 265.142C222.959 265.456 223.899 265.447 224.626 265.111C224.647 264.947 224.613 264.536 224.326 264.04C223.555 262.699 222.928 261.297 222.501 259.967C221.825 259.287 220.983 258.056 220.983 256.903C220.983 255.844 221.402 255.177 221.935 254.859C222.298 251.023 224.1 250.189 225.596 250.189C226.596 250.189 227.737 250.568 229.085 251.346C232.908 253.554 234.991 257.084 235.278 261.841C235.838 262.542 236.198 263.573 236.198 264.544C236.198 265.62 235.44 266.415 234.374 266.492C233.897 267.262 233.256 267.891 232.495 268.334C232.529 268.351 232.507 268.798 232.841 269.357C233.762 270.9 234.921 272.288 236.19 273.37C238.244 275.121 239.677 278.056 239.677 280.509V284.356C239.677 284.839 239.539 285.266 239.279 285.59C238.974 285.969 238.535 286.178 238.04 286.178ZM220.751 266.94C219.605 266.94 219.482 268.275 219.482 268.85V272.696C219.482 273.09 219.819 273.67 220.163 273.868L237.694 283.989L237.698 280.509C237.698 278.624 236.524 276.256 234.906 274.877C233.475 273.655 232.174 272.098 231.143 270.372C230.636 269.525 230.452 268.562 230.649 267.795C230.781 267.282 231.084 266.868 231.499 266.625C232.106 266.273 232.596 265.724 232.916 265.038L233.267 264.28L234.285 264.509C234.219 263.907 233.915 263.229 233.633 262.967L233.336 262.69L233.32 262.283C233.146 258.005 231.437 254.988 228.095 253.059C226.82 252.322 226.031 252.167 225.596 252.167C225.204 252.167 224.011 252.167 223.861 255.684L223.81 256.862L222.977 256.677C222.968 256.738 222.962 256.813 222.962 256.903C222.962 257.34 223.476 258.205 224.021 258.684L224.234 258.87L224.316 259.14C224.697 260.403 225.295 261.756 226.04 263.053C226.561 263.957 226.737 264.953 226.514 265.718C226.37 266.208 226.061 266.598 225.644 266.814C224.443 267.44 222.943 267.516 221.345 267.036C221.135 266.972 220.934 266.94 220.751 266.94Z" fill="white"/>
<path d="M315.941 377.355L206.675 314.146V288.269L315.941 351.478V377.355Z" fill="#DCDFF4"/>
<path d="M209.442 313.108V289.866L206.675 288.269V314.146L315.941 377.355V374.72L209.442 313.108Z" fill="#AFB6E5"/>
<path d="M315.941 412.404L206.675 349.194V323.317L315.941 386.527V412.404Z" fill="#DCDFF4"/>
<path d="M209.442 348.156V324.914L206.675 323.317V349.194L315.941 412.403V409.769L209.442 348.156Z" fill="#AFB6E5"/>
<defs>
<linearGradient id="paint0_linear_60_1724" x1="208.511" y1="483.647" x2="357.043" y2="362.266" gradientUnits="userSpaceOnUse">
<stop stop-color="#9E9E9E" stop-opacity="0.54"/>
<stop offset="0.5" stop-color="#CFCFCF" stop-opacity="0.27"/>
<stop offset="1" stop-color="white" stop-opacity="0"/>
</linearGradient>
<linearGradient id="paint1_linear_60_1724" x1="306.468" y1="206.813" x2="373.547" y2="429.878" gradientUnits="userSpaceOnUse">
<stop stop-color="#2AE8A4"/>
<stop offset="0.5" stop-color="#3EAFCE"/>
<stop offset="1" stop-color="#5277F7"/>
</linearGradient>
<linearGradient id="paint2_linear_60_1724" x1="350.124" y1="215.494" x2="414.407" y2="394.269" gradientUnits="userSpaceOnUse">
<stop stop-color="#2BE9A3"/>
<stop offset="0.18" stop-color="#15D8B4"/>
<stop offset="0.34" stop-color="#00C7C5"/>
<stop offset="0.63" stop-color="#299FDE"/>
<stop offset="0.82" stop-color="#5277F7"/>
</linearGradient>
<linearGradient id="paint3_linear_60_1724" x1="362.901" y1="290.026" x2="387.752" y2="276.84" gradientUnits="userSpaceOnUse">
<stop offset="0.08" stop-color="#B4F759"/>
<stop offset="0.39" stop-color="#6FF07E"/>
<stop offset="0.58" stop-color="#2BE9A3"/>
<stop offset="0.83" stop-color="#15D8B4"/>
<stop offset="0.99" stop-color="#00C7C5"/>
</linearGradient>
<linearGradient id="paint4_linear_60_1724" x1="371.419" y1="286.3" x2="399.186" y2="276.98" gradientUnits="userSpaceOnUse">
<stop offset="0.08" stop-color="#B4F759"/>
<stop offset="0.39" stop-color="#6FF07E"/>
<stop offset="0.58" stop-color="#2BE9A3"/>
<stop offset="0.83" stop-color="#15D8B4"/>
<stop offset="0.99" stop-color="#00C7C5"/>
</linearGradient>
<linearGradient id="paint5_linear_60_1724" x1="40.2809" y1="307.964" x2="81.8061" y2="49.2303" gradientUnits="userSpaceOnUse">
<stop stop-color="#5D75F6"/>
<stop offset="0.5" stop-color="#8C71F5"/>
<stop offset="1" stop-color="#BB6DF3"/>
</linearGradient>
<linearGradient id="paint6_linear_60_1724" x1="17.6159" y1="52.2359" x2="52.6099" y2="184.605" gradientUnits="userSpaceOnUse">
<stop offset="0.03" stop-color="#BB6DF3"/>
<stop offset="0.31" stop-color="#9F6DF3"/>
<stop offset="0.56" stop-color="#836DF3"/>
<stop offset="0.82" stop-color="#6B72F5"/>
<stop offset="1" stop-color="#5277F7"/>
</linearGradient>
<linearGradient id="paint7_linear_60_1724" x1="28.2634" y1="108.135" x2="43.4781" y2="140.086" gradientUnits="userSpaceOnUse">
<stop offset="0.06" stop-color="#F36DD4"/>
<stop offset="0.35" stop-color="#D76DE3"/>
<stop offset="0.55" stop-color="#BB6DF3"/>
<stop offset="0.77" stop-color="#9F6DF3"/>
<stop offset="1" stop-color="#836DF3"/>
</linearGradient>
<linearGradient id="paint8_linear_60_1724" x1="33.0547" y1="117.718" x2="51.6931" y2="142.442" gradientUnits="userSpaceOnUse">
<stop offset="0.06" stop-color="#F36DD4"/>
<stop offset="0.35" stop-color="#D76DE3"/>
<stop offset="0.55" stop-color="#BB6DF3"/>
<stop offset="0.77" stop-color="#9F6DF3"/>
<stop offset="1" stop-color="#836DF3"/>
</linearGradient>
<linearGradient id="paint9_linear_60_1724" x1="141.432" y1="51.8924" x2="291.81" y2="516.104" gradientUnits="userSpaceOnUse">
<stop stop-color="#B0B7E6"/>
<stop offset="0.1" stop-color="#B1B8E6"/>
<stop offset="0.19" stop-color="#B2B8E6"/>
<stop offset="0.25" stop-color="#B2B9E6"/>
<stop offset="0.28" stop-color="#B3B9E6"/>
<stop offset="0.35" stop-color="#B1B8E5"/>
<stop offset="0.41" stop-color="#AFB6E5"/>
<stop offset="0.57" stop-color="#AFB6E5"/>
<stop offset="0.91" stop-color="#AFB6E5"/>
<stop offset="0.96" stop-color="#AFB7E5"/>
<stop offset="1" stop-color="#B0B7E6"/>
</linearGradient>
<linearGradient id="paint10_linear_60_1724" x1="140.9" y1="51.8922" x2="291.274" y2="516.091" gradientUnits="userSpaceOnUse">
<stop stop-color="#B2B9E6"/>
<stop offset="0.1" stop-color="#B3BAE7"/>
<stop offset="0.19" stop-color="#B4BBE7"/>
<stop offset="0.25" stop-color="#B6BCE7"/>
<stop offset="0.28" stop-color="#B7BDE7"/>
<stop offset="0.35" stop-color="#B3B9E6"/>
<stop offset="0.41" stop-color="#AFB6E5"/>
<stop offset="0.57" stop-color="#AFB6E5"/>
<stop offset="0.91" stop-color="#AFB6E5"/>
<stop offset="0.96" stop-color="#B0B8E5"/>
<stop offset="1" stop-color="#B2B9E6"/>
</linearGradient>
<linearGradient id="paint11_linear_60_1724" x1="140.9" y1="51.8921" x2="291.27" y2="516.078" gradientUnits="userSpaceOnUse">
<stop stop-color="#B3BAE7"/>
<stop offset="0.1" stop-color="#B5BBE8"/>
<stop offset="0.19" stop-color="#B7BDE9"/>
<stop offset="0.25" stop-color="#B9BEE9"/>
<stop offset="0.28" stop-color="#BAC0E9"/>
<stop offset="0.35" stop-color="#B5BBE7"/>
<stop offset="0.41" stop-color="#AFB6E5"/>
<stop offset="0.57" stop-color="#AFB6E5"/>
<stop offset="0.91" stop-color="#AFB6E5"/>
<stop offset="0.96" stop-color="#B1B8E6"/>
<stop offset="1" stop-color="#B3BAE7"/>
</linearGradient>
<linearGradient id="paint12_linear_60_1724" x1="140.9" y1="52.4246" x2="291.265" y2="516.598" gradientUnits="userSpaceOnUse">
<stop stop-color="#B5BBE8"/>
<stop offset="0.1" stop-color="#B7BDE9"/>
<stop offset="0.19" stop-color="#B9C0EA"/>
<stop offset="0.25" stop-color="#BBC2EA"/>
<stop offset="0.28" stop-color="#BEC4EA"/>
<stop offset="0.35" stop-color="#B7BDE8"/>
<stop offset="0.41" stop-color="#AFB6E5"/>
<stop offset="0.57" stop-color="#AFB6E5"/>
<stop offset="0.91" stop-color="#AFB6E5"/>
<stop offset="0.96" stop-color="#B2B9E7"/>
<stop offset="1" stop-color="#B5BBE8"/>
</linearGradient>
<linearGradient id="paint13_linear_60_1724" x1="140.9" y1="52.4245" x2="291.262" y2="516.585" gradientUnits="userSpaceOnUse">
<stop stop-color="#B6BDE8"/>
<stop offset="0.1" stop-color="#B9C0EA"/>
<stop offset="0.19" stop-color="#BCC2EB"/>
<stop offset="0.25" stop-color="#BFC5EB"/>
<stop offset="0.28" stop-color="#C2C7EB"/>
<stop offset="0.35" stop-color="#B9BEE8"/>
<stop offset="0.41" stop-color="#AFB6E5"/>
<stop offset="0.57" stop-color="#AFB6E5"/>
<stop offset="0.91" stop-color="#AFB6E5"/>
<stop offset="0.96" stop-color="#B2B9E7"/>
<stop offset="1" stop-color="#B6BDE8"/>
</linearGradient>
<linearGradient id="paint14_linear_60_1724" x1="140.367" y1="52.4246" x2="290.725" y2="516.572" gradientUnits="userSpaceOnUse">
<stop stop-color="#B8BEE9"/>
<stop offset="0.1" stop-color="#BBC2EB"/>
<stop offset="0.19" stop-color="#BEC5EC"/>
<stop offset="0.25" stop-color="#C2C8EC"/>
<stop offset="0.28" stop-color="#C6CBEC"/>
<stop offset="0.35" stop-color="#BAC1E9"/>
<stop offset="0.41" stop-color="#AFB6E5"/>
<stop offset="0.57" stop-color="#AFB6E5"/>
<stop offset="0.91" stop-color="#AFB6E5"/>
<stop offset="0.96" stop-color="#B4BAE7"/>
<stop offset="1" stop-color="#B8BEE9"/>
</linearGradient>
<linearGradient id="paint15_linear_60_1724" x1="140.367" y1="52.425" x2="290.721" y2="516.561" gradientUnits="userSpaceOnUse">
<stop stop-color="#B9BFEA"/>
<stop offset="0.1" stop-color="#BDC3EC"/>
<stop offset="0.19" stop-color="#C1C7EE"/>
<stop offset="0.25" stop-color="#C6CAEE"/>
<stop offset="0.28" stop-color="#CACEEE"/>
<stop offset="0.35" stop-color="#BCC2EA"/>
<stop offset="0.41" stop-color="#AFB6E5"/>
<stop offset="0.57" stop-color="#AFB6E5"/>
<stop offset="0.91" stop-color="#AFB6E5"/>
<stop offset="0.96" stop-color="#B4BAE8"/>
<stop offset="1" stop-color="#B9BFEA"/>
</linearGradient>
<linearGradient id="paint16_linear_60_1724" x1="140.367" y1="52.4244" x2="290.717" y2="516.547" gradientUnits="userSpaceOnUse">
<stop stop-color="#BAC1EA"/>
<stop offset="0.1" stop-color="#BFC5EC"/>
<stop offset="0.19" stop-color="#C4C9EF"/>
<stop offset="0.25" stop-color="#C8CEEF"/>
<stop offset="0.28" stop-color="#CDD2EF"/>
<stop offset="0.35" stop-color="#BEC4EA"/>
<stop offset="0.41" stop-color="#AFB6E5"/>
<stop offset="0.57" stop-color="#AFB6E5"/>
<stop offset="0.91" stop-color="#AFB6E5"/>
<stop offset="0.96" stop-color="#B5BBE8"/>
<stop offset="1" stop-color="#BAC1EA"/>
</linearGradient>
<linearGradient id="paint17_linear_60_1724" x1="139.835" y1="52.4245" x2="290.18" y2="516.534" gradientUnits="userSpaceOnUse">
<stop stop-color="#BCC2EB"/>
<stop offset="0.1" stop-color="#C1C7ED"/>
<stop offset="0.19" stop-color="#C6CCF0"/>
<stop offset="0.25" stop-color="#CBD1F0"/>
<stop offset="0.28" stop-color="#D1D5F0"/>
<stop offset="0.35" stop-color="#C0C6EB"/>
<stop offset="0.41" stop-color="#AFB6E5"/>
<stop offset="0.57" stop-color="#AFB6E5"/>
<stop offset="0.91" stop-color="#AFB6E5"/>
<stop offset="0.96" stop-color="#B6BCE8"/>
<stop offset="1" stop-color="#BCC2EB"/>
</linearGradient>
<linearGradient id="paint18_linear_60_1724" x1="139.835" y1="52.4248" x2="290.176" y2="516.523" gradientUnits="userSpaceOnUse">
<stop stop-color="#BDC3EC"/>
<stop offset="0.1" stop-color="#C3C8EE"/>
<stop offset="0.19" stop-color="#C9CEF1"/>
<stop offset="0.25" stop-color="#CFD3F1"/>
<stop offset="0.28" stop-color="#D5D9F1"/>
<stop offset="0.35" stop-color="#C2C7EB"/>
<stop offset="0.41" stop-color="#AFB6E5"/>
<stop offset="0.57" stop-color="#AFB6E5"/>
<stop offset="0.91" stop-color="#AFB6E5"/>
<stop offset="0.96" stop-color="#B6BCE9"/>
<stop offset="1" stop-color="#BDC3EC"/>
</linearGradient>
<linearGradient id="paint19_linear_60_1724" x1="139.835" y1="52.4247" x2="290.172" y2="516.51" gradientUnits="userSpaceOnUse">
<stop stop-color="#BFC5EC"/>
<stop offset="0.1" stop-color="#C5CBEF"/>
<stop offset="0.19" stop-color="#CBD1F3"/>
<stop offset="0.25" stop-color="#D2D6F3"/>
<stop offset="0.28" stop-color="#D9DCF3"/>
<stop offset="0.35" stop-color="#C4C9EC"/>
<stop offset="0.41" stop-color="#AFB6E5"/>
<stop offset="0.57" stop-color="#AFB6E5"/>
<stop offset="0.91" stop-color="#AFB6E5"/>
<stop offset="0.96" stop-color="#B7BDE9"/>
<stop offset="1" stop-color="#BFC5EC"/>
</linearGradient>
<linearGradient id="paint20_linear_60_1724" x1="139.835" y1="52.4243" x2="290.168" y2="516.497" gradientUnits="userSpaceOnUse">
<stop stop-color="#C0C6ED"/>
<stop offset="0.1" stop-color="#C7CDF0"/>
<stop offset="0.19" stop-color="#CED3F4"/>
<stop offset="0.25" stop-color="#D5DAF4"/>
<stop offset="0.28" stop-color="#DDE0F4"/>
<stop offset="0.35" stop-color="#C6CBEC"/>
<stop offset="0.41" stop-color="#AFB6E5"/>
<stop offset="0.57" stop-color="#AFB6E5"/>
<stop offset="0.91" stop-color="#AFB6E5"/>
<stop offset="0.96" stop-color="#B8BEE9"/>
<stop offset="1" stop-color="#C0C6ED"/>
</linearGradient>
<linearGradient id="paint21_linear_60_1724" x1="139.302" y1="52.9566" x2="289.631" y2="517.016" gradientUnits="userSpaceOnUse">
<stop stop-color="#C2C7EE"/>
<stop offset="0.1" stop-color="#C9CFF1"/>
<stop offset="0.19" stop-color="#D0D6F5"/>
<stop offset="0.25" stop-color="#D8DDF5"/>
<stop offset="0.28" stop-color="#E1E3F5"/>
<stop offset="0.35" stop-color="#C8CDED"/>
<stop offset="0.41" stop-color="#AFB6E5"/>
<stop offset="0.57" stop-color="#AFB6E5"/>
<stop offset="0.91" stop-color="#AFB6E5"/>
<stop offset="0.96" stop-color="#B9BEEA"/>
<stop offset="1" stop-color="#C2C7EE"/>
</linearGradient>
<linearGradient id="paint22_linear_60_1724" x1="139.302" y1="52.957" x2="289.628" y2="517.004" gradientUnits="userSpaceOnUse">
<stop stop-color="#C3C9EE"/>
<stop offset="0.1" stop-color="#CBD1F2"/>
<stop offset="0.19" stop-color="#D3D8F6"/>
<stop offset="0.25" stop-color="#DCDFF6"/>
<stop offset="0.28" stop-color="#E4E7F6"/>
<stop offset="0.35" stop-color="#C9CFED"/>
<stop offset="0.41" stop-color="#AFB6E5"/>
<stop offset="0.57" stop-color="#AFB6E5"/>
<stop offset="0.91" stop-color="#AFB6E5"/>
<stop offset="0.96" stop-color="#B9C0EA"/>
<stop offset="1" stop-color="#C3C9EE"/>
</linearGradient>
<linearGradient id="paint23_linear_60_1724" x1="139.302" y1="52.9571" x2="289.623" y2="516.991" gradientUnits="userSpaceOnUse">
<stop stop-color="#C4CAEF"/>
<stop offset="0.1" stop-color="#CDD2F4"/>
<stop offset="0.19" stop-color="#D6DAF8"/>
<stop offset="0.25" stop-color="#DFE2F8"/>
<stop offset="0.28" stop-color="#E8EAF8"/>
<stop offset="0.35" stop-color="#CBD0EE"/>
<stop offset="0.41" stop-color="#AFB6E5"/>
<stop offset="0.57" stop-color="#AFB6E5"/>
<stop offset="0.91" stop-color="#AFB6E5"/>
<stop offset="0.96" stop-color="#B9C0EA"/>
<stop offset="1" stop-color="#C4CAEF"/>
</linearGradient>
<linearGradient id="paint24_linear_60_1724" x1="139.302" y1="52.957" x2="289.619" y2="516.979" gradientUnits="userSpaceOnUse">
<stop stop-color="#C6CBF0"/>
<stop offset="0.1" stop-color="#CFD4F5"/>
<stop offset="0.19" stop-color="#D8DDF9"/>
<stop offset="0.25" stop-color="#E2E5F9"/>
<stop offset="0.28" stop-color="#ECEEF9"/>
<stop offset="0.35" stop-color="#CED2EF"/>
<stop offset="0.41" stop-color="#AFB6E5"/>
<stop offset="0.57" stop-color="#AFB6E5"/>
<stop offset="0.91" stop-color="#AFB6E5"/>
<stop offset="0.96" stop-color="#BAC1EB"/>
<stop offset="1" stop-color="#C6CBF0"/>
</linearGradient>
<linearGradient id="paint25_linear_60_1724" x1="138.77" y1="52.9573" x2="289.083" y2="516.967" gradientUnits="userSpaceOnUse">
<stop stop-color="#C7CDF0"/>
<stop offset="0.1" stop-color="#D1D6F5"/>
<stop offset="0.19" stop-color="#DBDFFA"/>
<stop offset="0.25" stop-color="#E5E8FA"/>
<stop offset="0.28" stop-color="#F0F1FA"/>
<stop offset="0.35" stop-color="#D0D3EF"/>
<stop offset="0.41" stop-color="#AFB6E5"/>
<stop offset="0.57" stop-color="#AFB6E5"/>
<stop offset="0.91" stop-color="#AFB6E5"/>
<stop offset="0.96" stop-color="#BBC2EB"/>
<stop offset="1" stop-color="#C7CDF0"/>
</linearGradient>
<linearGradient id="paint26_linear_60_1724" x1="138.77" y1="52.9569" x2="289.079" y2="516.954" gradientUnits="userSpaceOnUse">
<stop stop-color="#C9CEF1"/>
<stop offset="0.1" stop-color="#D3D8F6"/>
<stop offset="0.19" stop-color="#DDE2FB"/>
<stop offset="0.25" stop-color="#E9ECFB"/>
<stop offset="0.28" stop-color="#F4F5FB"/>
<stop offset="0.35" stop-color="#D2D5F0"/>
<stop offset="0.41" stop-color="#AFB6E5"/>
<stop offset="0.57" stop-color="#AFB6E5"/>
<stop offset="0.91" stop-color="#AFB6E5"/>
<stop offset="0.96" stop-color="#BCC2EB"/>
<stop offset="1" stop-color="#C9CEF1"/>
</linearGradient>
<linearGradient id="paint27_linear_60_1724" x1="138.77" y1="52.9568" x2="289.075" y2="516.941" gradientUnits="userSpaceOnUse">
<stop stop-color="#CACFF2"/>
<stop offset="0.1" stop-color="#D5DAF8"/>
<stop offset="0.19" stop-color="#E0E4FD"/>
<stop offset="0.25" stop-color="#ECEEFD"/>
<stop offset="0.28" stop-color="#F7F8FD"/>
<stop offset="0.35" stop-color="#D3D7F1"/>
<stop offset="0.41" stop-color="#AFB6E5"/>
<stop offset="0.57" stop-color="#AFB6E5"/>
<stop offset="0.91" stop-color="#AFB6E5"/>
<stop offset="0.96" stop-color="#BCC3EC"/>
<stop offset="1" stop-color="#CACFF2"/>
</linearGradient>
<linearGradient id="paint28_linear_60_1724" x1="138.238" y1="52.9567" x2="288.538" y2="516.928" gradientUnits="userSpaceOnUse">
<stop stop-color="#CCD1F2"/>
<stop offset="0.1" stop-color="#D7DCF8"/>
<stop offset="0.19" stop-color="#E2E7FE"/>
<stop offset="0.25" stop-color="#EEF1FE"/>
<stop offset="0.28" stop-color="#FBFCFE"/>
<stop offset="0.35" stop-color="#D5D9F1"/>
<stop offset="0.41" stop-color="#AFB6E5"/>
<stop offset="0.57" stop-color="#AFB6E5"/>
<stop offset="0.91" stop-color="#AFB6E5"/>
<stop offset="0.96" stop-color="#BDC4EC"/>
<stop offset="1" stop-color="#CCD1F2"/>
</linearGradient>
<linearGradient id="paint29_linear_60_1724" x1="138.238" y1="52.9573" x2="288.534" y2="516.916" gradientUnits="userSpaceOnUse">
<stop stop-color="#CDD2F3"/>
<stop offset="0.1" stop-color="#D9DEF9"/>
<stop offset="0.19" stop-color="#E5E9FF"/>
<stop offset="0.25" stop-color="#F2F4FF"/>
<stop offset="0.28" stop-color="white"/>
<stop offset="0.35" stop-color="#D7DBF2"/>
<stop offset="0.41" stop-color="#AFB6E5"/>
<stop offset="0.57" stop-color="#AFB6E5"/>
<stop offset="0.91" stop-color="#AFB6E5"/>
<stop offset="0.96" stop-color="#BEC4EC"/>
<stop offset="1" stop-color="#CDD2F3"/>
</linearGradient>
<linearGradient id="paint30_linear_60_1724" x1="-99.7333" y1="412.309" x2="430.587" y2="195.285" gradientUnits="userSpaceOnUse">
<stop stop-color="#AFB6E5"/>
<stop offset="0.37" stop-color="#CAD0F2"/>
<stop offset="0.58" stop-color="#E5E9FF"/>
<stop offset="0.81" stop-color="#F2F4FF"/>
<stop offset="1" stop-color="white"/>
</linearGradient>
<linearGradient id="paint31_linear_60_1724" x1="106.295" y1="109.388" x2="340.672" y2="556.302" gradientUnits="userSpaceOnUse">
<stop stop-color="#273B98"/>
<stop offset="0.22" stop-color="#2E2CA2"/>
<stop offset="0.4" stop-color="#361CAC"/>
<stop offset="0.71" stop-color="#420E8E"/>
<stop offset="1" stop-color="#4E0070"/>
</linearGradient>
<linearGradient id="paint32_linear_60_1724" x1="174.971" y1="428.813" x2="222.27" y2="147.887" gradientUnits="userSpaceOnUse">
<stop stop-color="#5277F7"/>
<stop offset="0.34" stop-color="#8672F5"/>
<stop offset="0.56" stop-color="#BB6DF3"/>
<stop offset="0.78" stop-color="#D76DE3"/>
<stop offset="1" stop-color="#F36DD4"/>
</linearGradient>
<radialGradient id="paint33_radial_60_1724" cx="0" cy="0" r="1" gradientUnits="userSpaceOnUse" gradientTransform="translate(93.5183 107.259) scale(31.5249)">
<stop stop-color="#8A8A8A" stop-opacity="0.17"/>
<stop offset="0.5" stop-color="#454545" stop-opacity="0.085"/>
<stop offset="1" stop-opacity="0"/>
</radialGradient>
<linearGradient id="paint34_linear_60_1724" x1="179.23" y1="429.877" x2="60.5069" y2="119.37" gradientUnits="userSpaceOnUse">
<stop offset="0.03" stop-color="#BB6DF3"/>
<stop offset="0.31" stop-color="#9F6DF3"/>
<stop offset="0.56" stop-color="#836DF3"/>
<stop offset="0.82" stop-color="#6B72F5"/>
<stop offset="1" stop-color="#5277F7"/>
</linearGradient>
<linearGradient id="paint35_linear_60_1724" x1="214.367" y1="432.539" x2="79.3774" y2="268.266" gradientUnits="userSpaceOnUse">
<stop offset="0.03" stop-color="#BB6DF3"/>
<stop offset="0.31" stop-color="#8B57EA"/>
<stop offset="0.6" stop-color="#5B41E0"/>
<stop offset="0.83" stop-color="#565CEC"/>
<stop offset="1" stop-color="#5277F7"/>
</linearGradient>
<linearGradient id="paint36_linear_60_1724" x1="94.583" y1="313.82" x2="182.322" y2="391.416" gradientUnits="userSpaceOnUse">
<stop stop-color="#FFFA84"/>
<stop offset="0.27" stop-color="#DAF96E"/>
<stop offset="0.52" stop-color="#B4F759"/>
<stop offset="0.77" stop-color="#91F46C"/>
<stop offset="1" stop-color="#6EF07F"/>
</linearGradient>
<radialGradient id="paint37_radial_60_1724" cx="0" cy="0" r="1" gradientUnits="userSpaceOnUse" gradientTransform="translate(108.691 322.072) scale(36.6315)">
<stop stop-color="#B6F75A"/>
<stop offset="0.66" stop-color="#D0F86A"/>
<stop offset="1" stop-color="#EAF979"/>
</radialGradient>
<linearGradient id="paint38_linear_60_1724" x1="138.77" y1="347.892" x2="194.973" y2="397.597" gradientUnits="userSpaceOnUse">
<stop stop-color="#FFFA84"/>
<stop offset="0.27" stop-color="#DAF96E"/>
<stop offset="0.52" stop-color="#B4F759"/>
<stop offset="0.77" stop-color="#91F46C"/>
<stop offset="1" stop-color="#6EF07F"/>
</linearGradient>
<linearGradient id="paint39_linear_60_1724" x1="87.1298" y1="155.705" x2="131.143" y2="283.787" gradientUnits="userSpaceOnUse">
<stop stop-color="#836DF3"/>
<stop offset="0.34" stop-color="#9F6DF3"/>
<stop offset="0.56" stop-color="#BB6DF3"/>
<stop offset="0.78" stop-color="#D76DE3"/>
<stop offset="1" stop-color="#F36DD4"/>
</linearGradient>
<linearGradient id="paint40_linear_60_1724" x1="121.202" y1="158.899" x2="123.18" y2="270.415" gradientUnits="userSpaceOnUse">
<stop stop-color="#66CCFF"/>
<stop offset="0.53" stop-color="#5CA1FB"/>
<stop offset="1" stop-color="#5277F7"/>
</linearGradient>
<linearGradient id="paint41_linear_60_1724" x1="167.518" y1="194.568" x2="119.055" y2="225.971" gradientUnits="userSpaceOnUse">
<stop stop-color="#DFED72"/>
<stop offset="0.23" stop-color="#C9F265"/>
<stop offset="0.44" stop-color="#B4F759"/>
<stop offset="0.79" stop-color="#96F469"/>
<stop offset="1" stop-color="#78F179"/>
</linearGradient>
<radialGradient id="paint42_radial_60_1724" cx="0" cy="0" r="1" gradientUnits="userSpaceOnUse" gradientTransform="translate(318.979 283.209) scale(28.9496)">
<stop stop-color="#4B4B4B" stop-opacity="0.87"/>
<stop offset="0.5" stop-color="#A5A5A5" stop-opacity="0.435"/>
<stop offset="1" stop-color="white" stop-opacity="0"/>
</radialGradient>
<linearGradient id="paint43_linear_60_1724" x1="190.943" y1="262.712" x2="331.947" y2="262.712" gradientUnits="userSpaceOnUse">
<stop stop-color="#2BE9A3"/>
<stop offset="0.18" stop-color="#15D8B4"/>
<stop offset="0.34" stop-color="#00C7C5"/>
<stop offset="0.63" stop-color="#299FDE"/>
<stop offset="0.82" stop-color="#5277F7"/>
</linearGradient>
<linearGradient id="paint44_linear_60_1724" x1="189.878" y1="214.798" x2="304.209" y2="249.935" gradientUnits="userSpaceOnUse">
<stop stop-color="#3C96E5"/>
<stop offset="0.66" stop-color="#37BEC8"/>
<stop offset="1" stop-color="#31E6AC"/>
</linearGradient>
<linearGradient id="paint45_linear_60_1724" x1="245.245" y1="299.978" x2="206.827" y2="223.904" gradientUnits="userSpaceOnUse">
<stop stop-color="#2BE9A3"/>
<stop offset="0.18" stop-color="#15D8B4"/>
<stop offset="0.34" stop-color="#00C7C5"/>
<stop offset="0.63" stop-color="#299FDE"/>
<stop offset="0.82" stop-color="#5277F7"/>
</linearGradient>
<linearGradient id="paint46_linear_60_1724" x1="258.554" y1="313.288" x2="222.419" y2="250.146" gradientUnits="userSpaceOnUse">
<stop stop-color="#2BE9A3"/>
<stop offset="0.18" stop-color="#15D8B4"/>
<stop offset="0.34" stop-color="#00C7C5"/>
<stop offset="0.63" stop-color="#299FDE"/>
<stop offset="0.82" stop-color="#5277F7"/>
</linearGradient>
</defs>
</svg>
