<?xml version="1.0" encoding="utf-8"?>
<!-- Generator: Adobe Illustrator 21.0.0, SVG Export Plug-In . SVG Version: 6.00 Build 0)  -->
<svg version="1.1" id="Слой_1" xmlns="http://www.w3.org/2000/svg" xmlns:xlink="http://www.w3.org/1999/xlink" x="0px" y="0px"
	 viewBox="0 0 122.1 29.5" style="enable-background:new 0 0 122.1 29.5;" xml:space="preserve">
<style type="text/css">
	.st0{fill:none;}
	.st1{fill:#FFFFFF;}
	.st2{fill:#FFAF14;}
	.st3{font-family:'OpenSans';}
	.st4{font-size:4.7074px;}
	.st5{fill:none;stroke:#FFFFFF;stroke-width:0.5;stroke-miterlimit:10;}
</style>
<title>logo_text</title>
<desc>Created with Sketch.</desc>
<g id="Index-на-верску" transform="translate(-77.000000, -38.000000)">
	<g id="Head" transform="translate(-3.000000, -5.000000)">
		<g id="logo_text" transform="translate(80.000000, 43.000000)">
			<circle id="Oval" class="st0" cx="31" cy="17.5" r="12"/>
			<g id="T" transform="translate(0.000000, 1.000000)">
				<polygon id="Shape" class="st1" points="16,5.5 16,11 10.9,11 10.9,26.5 5,26.5 5,11 0,11 0,5.5 				"/>
			</g>
			<g id="KPIE" transform="translate(48.000000, 1.000000)">
				<polygon id="Shape_1_" class="st1" points="11.7,26.5 7.9,19.3 6.1,21.5 6.1,26.5 0,26.5 0,5.5 6.1,5.5 6.1,12.8 11.6,5.5 
					18.6,5.5 12,13.9 19,26.5 				"/>
				<path id="Shape_2_" class="st1" d="M36,13c0,5.1-2.7,8-7.4,8H26v5.4h-6v-21h8.5C33.3,5.5,36,8.2,36,13z M30,13
					c0-1.6-0.7-2.5-1.9-2.5H26v5h2.1C29.3,15.5,30,14.6,30,13L30,13z"/>
				<polygon id="Shape_3_" class="st1" points="44,5.5 44,26.5 38,26.5 38,5.5 				"/>
				<polygon id="Shape_4_" class="st1" points="62.8,5.5 62.8,10.8 53.2,10.8 53.2,13.3 61.9,13.3 61.9,18.6 53.2,18.6 53.2,21.2 
					63,21.2 63,26.5 47,26.5 47,5.5 				"/>
			</g>
			<path id="Shape_5_" class="st1" d="M30.6,17.7l4-5c-2.4-1.8-5.7-1.5-7.8,0.6s-2.3,5.4-0.6,7.8c1.8,2.4,5.1,3.1,7.7,1.7
				c2.6-1.4,3.8-4.6,2.8-7.4L30.6,17.7z"/>
			<path id="Shape_6_" class="st1" d="M38,14.2c-0.4-1.1-1.1-2-2-2.7l-4,5L38,14.2z"/>
			<path id="Shape_7_" class="st2" d="M39.3,14.4c1.5,4.1-0.2,8.8-4.1,10.9s-8.7,1-11.4-2.5s-2.3-8.5,0.9-11.6s8.1-3.5,11.6-0.8
				l2-2.4c-3.6-2.8-8.5-3.3-12.6-1.3S19,12.9,19,17.5c0,4.8,2.9,9.1,7.3,11c4.4,1.9,9.5,1,13-2.3s4.6-8.4,3-12.9L39.3,14.4z"/>
			<path id="Shape_8_" class="st2" d="M41.2,7.5c-0.4-0.3-0.8-0.7-1.2-1l-2,2.3c0.3,0.2,0.7,0.5,1,0.8c0.9,0.8,1.6,1.9,2.1,3l3-1
				C43.4,10,42.4,8.6,41.2,7.5z"/>
		</g>
	</g>
</g>
<g>
	<text transform="matrix(1 0 0 1 115.9843 6.3624)" class="st1 st3 st4">R</text>
	<circle class="st5" cx="117.4" cy="4.6" r="3.6"/>
</g>
</svg>
